<?xml version="1.0" encoding="UTF-8"?>
<!DOCTYPE svg PUBLIC "-//W3C//DTD SVG 1.1//EN" "http://www.w3.org/Graphics/SVG/1.1/DTD/svg11.dtd">
<svg xmlns="http://www.w3.org/2000/svg" version="1.1" width="1111px" height="1111px" style="shape-rendering:geometricPrecision; text-rendering:geometricPrecision; image-rendering:optimizeQuality; fill-rule:evenodd; clip-rule:evenodd" xmlns:xlink="http://www.w3.org/1999/xlink">
<g><path style="opacity:0.816" fill="#fdfffd" d="M 543.5,99.5 C 551.188,98.0228 555.188,101.189 555.5,109C 554.467,112.814 553.967,116.647 554,120.5C 579.587,182.26 604.587,244.26 629,306.5C 633.806,317.446 639.139,328.112 645,338.5C 646,342.167 647,345.833 648,349.5C 655.203,353.77 661.87,358.77 668,364.5C 669.759,367.608 670.592,370.941 670.5,374.5C 674.712,373.739 678.879,372.739 683,371.5C 693.556,373.745 701.556,379.412 707,388.5C 708.633,423.794 708.967,459.128 708,494.5C 707.449,500.103 704.949,504.603 700.5,508C 696.207,509.931 691.874,511.764 687.5,513.5C 684.655,522.169 679.989,529.669 673.5,536C 667.927,537.305 664.761,540.805 664,546.5C 660.579,553.087 655.413,557.753 648.5,560.5C 647.44,620.834 647.607,681.167 649,741.5C 660.644,749.177 664.311,759.844 660,773.5C 657.797,778.871 654.297,783.204 649.5,786.5C 649.167,789.5 648.833,792.5 648.5,795.5C 649.055,819.179 649.888,842.846 651,866.5C 651.581,871.759 653.415,876.426 656.5,880.5C 658.5,876.5 660.5,872.5 662.5,868.5C 666.538,871.708 670.704,874.708 675,877.5C 677.497,875.856 679.997,874.189 682.5,872.5C 683.567,874.559 684.9,876.392 686.5,878C 693.5,878.667 700.5,878.667 707.5,878C 714.102,876.566 720.768,875.566 727.5,875C 730.461,865.405 735.461,857.072 742.5,850C 759.476,841.548 772.309,845.714 781,862.5C 782.606,868.764 784.44,874.93 786.5,881C 790.253,882.397 794.086,883.564 798,884.5C 800.432,881.312 803.099,878.312 806,875.5C 807.605,876.101 808.938,877.101 810,878.5C 811.688,881.226 813.188,884.059 814.5,887C 820.877,888.511 827.21,890.177 833.5,892C 838.225,893.177 842.559,895.011 846.5,897.5C 838.855,898.665 831.188,898.831 823.5,898C 804.099,894.651 784.766,891.318 765.5,888C 768.508,893.859 770.674,900.026 772,906.5C 774.689,908.786 777.689,909.119 781,907.5C 784.799,907.975 787.633,909.808 789.5,913C 789.023,915.371 787.523,916.537 785,916.5C 760.842,915.76 736.676,915.093 712.5,914.5C 709.167,914.167 705.833,913.833 702.5,913.5C 701.339,909.672 702.673,907.005 706.5,905.5C 707.748,906.04 708.915,906.707 710,907.5C 711.996,901.893 712.829,896.227 712.5,890.5C 713.729,889.719 715.062,889.219 716.5,889C 716.167,888.667 715.833,888.333 715.5,888C 712.574,887.782 709.74,887.282 707,886.5C 705.806,887.43 704.473,888.097 703,888.5C 696.946,886.045 690.78,886.045 684.5,888.5C 682.222,888.219 681.055,886.885 681,884.5C 677.815,886.291 674.315,887.291 670.5,887.5C 667.552,886.657 665.719,884.657 665,881.5C 664.187,883.436 663.687,885.436 663.5,887.5C 656.833,887.5 650.167,887.5 643.5,887.5C 645.1,876.232 644.267,875.899 641,886.5C 636.757,889.53 633.757,888.53 632,883.5C 631.5,884.5 631,885.5 630.5,886.5C 623.219,888.368 615.886,888.702 608.5,887.5C 607.902,886.205 607.402,884.872 607,883.5C 605.786,885.049 604.286,886.215 602.5,887C 595.161,887.417 587.827,887.917 580.5,888.5C 577.434,888.596 574.934,887.596 573,885.5C 571.267,887.602 569.267,887.935 567,886.5C 566.489,884.122 565.822,881.788 565,879.5C 564.333,882.167 563.667,884.833 563,887.5C 562.439,888.022 561.772,888.355 561,888.5C 557.007,886.969 552.84,886.302 548.5,886.5C 527.79,887.934 507.123,887.767 486.5,886C 485.853,884.391 485.02,882.891 484,881.5C 482.764,888.796 479.431,890.129 474,885.5C 472.803,882.911 471.803,880.244 471,877.5C 469.892,881.086 469.392,884.753 469.5,888.5C 461.92,889.751 457.086,886.751 455,879.5C 454.899,882.7 454.232,885.7 453,888.5C 450.372,886.874 448.039,884.874 446,882.5C 445.667,884.5 445.333,886.5 445,888.5C 443.215,887.76 441.382,887.093 439.5,886.5C 432.638,890.484 428.805,888.484 428,880.5C 426.921,883.063 426.421,885.729 426.5,888.5C 423.737,888.256 421.571,886.923 420,884.5C 420.307,892.219 417.807,893.386 412.5,888C 403.599,887.297 394.765,886.464 386,885.5C 359.901,887.655 334.068,891.822 308.5,898C 304.514,898.499 300.514,898.666 296.5,898.5C 296.67,899.822 296.337,900.989 295.5,902C 289.843,902.499 284.176,902.666 278.5,902.5C 279.35,898.447 280.516,894.447 282,890.5C 287.756,887.799 292.589,889.133 296.5,894.5C 311.234,888.15 326.567,883.983 342.5,882C 365.51,880.945 388.51,880.111 411.5,879.5C 411.286,877.856 411.62,876.356 412.5,875C 415.553,874.821 418.553,874.321 421.5,873.5C 422.278,870.461 423.612,867.794 425.5,865.5C 429.231,867.61 432.064,870.61 434,874.5C 434.374,873.584 434.874,872.75 435.5,872C 440.126,871.888 444.459,870.721 448.5,868.5C 448.833,867.333 449.167,866.167 449.5,865C 450.633,840.515 450.8,816.015 450,791.5C 449.544,787.706 447.544,785.039 444,783.5C 437.029,773.237 435.696,762.237 440,750.5C 442.387,746.447 445.72,743.447 450,741.5C 451.886,681.503 451.886,621.503 450,561.5C 445.107,557.727 440.44,553.727 436,549.5C 434.667,546.167 433.333,542.833 432,539.5C 420.898,533.984 414.731,524.984 413.5,512.5C 402.263,511.434 395.096,505.434 392,494.5C 391.333,458.5 391.333,422.5 392,386.5C 398.523,377.324 407.356,372.491 418.5,372C 422.43,373.477 426.43,374.644 430.5,375.5C 430.544,370.882 431.544,366.548 433.5,362.5C 439.423,358.289 445.256,353.955 451,349.5C 451.842,345.131 452.842,340.797 454,336.5C 483.7,264.397 513.2,192.23 542.5,120C 538.258,112.891 538.591,106.057 543.5,99.5 Z M 545.5,105.5 C 552.079,108.24 552.079,110.573 545.5,112.5C 544.167,110.167 544.167,107.833 545.5,105.5 Z M 546.5,128.5 C 548.624,129.031 550.124,130.365 551,132.5C 551.735,134.871 552.568,137.205 553.5,139.5C 550.014,140.276 546.514,140.942 543,141.5C 542.5,141.167 542,140.833 541.5,140.5C 543.179,136.479 544.846,132.479 546.5,128.5 Z M 545.5,146.5 C 547.627,147.398 548.794,149.064 549,151.5C 549.499,156.155 549.666,160.821 549.5,165.5C 543.501,166.5 537.501,167.5 531.5,168.5C 533.153,162.188 535.653,156.188 539,150.5C 541.013,148.752 543.18,147.418 545.5,146.5 Z M 545.5,172.5 C 549.394,172.11 553.06,172.777 556.5,174.5C 557.959,179.129 559.293,183.796 560.5,188.5C 558.089,189.482 555.589,190.149 553,190.5C 548.828,189.785 544.662,189.119 540.5,188.5C 540.43,183.391 541.097,178.391 542.5,173.5C 543.791,173.737 544.791,173.404 545.5,172.5 Z M 532.5,174.5 C 533.833,174.5 535.167,174.5 536.5,174.5C 538.876,187.658 533.542,193.824 520.5,193C 522.921,185.619 526.921,179.452 532.5,174.5 Z M 568.5,181.5 C 569.458,181.953 570.292,182.619 571,183.5C 572.683,187.168 574.016,190.835 575,194.5C 571.608,190.656 569.442,186.323 568.5,181.5 Z M 536.5,195.5 C 541.138,195.472 545.638,196.139 550,197.5C 552.343,202.906 552.843,208.406 551.5,214C 544.14,214.809 536.806,215.642 529.5,216.5C 528.272,210.715 528.772,205.048 531,199.5C 532.456,197.535 534.29,196.201 536.5,195.5 Z M 557.5,198.5 C 557.934,201.555 559.601,203.721 562.5,205C 561.552,205.483 560.552,205.649 559.5,205.5C 559.104,208.044 559.771,210.211 561.5,212C 560.124,214.543 558.957,214.709 558,212.5C 557.501,207.845 557.334,203.179 557.5,198.5 Z M 562.5,198.5 C 565.79,199.656 566.29,201.656 564,204.5C 563.89,202.152 562.723,200.652 560.5,200C 561.416,199.722 562.082,199.222 562.5,198.5 Z M 522.5,199.5 C 524.722,199.559 525.722,200.725 525.5,203C 524.98,207.294 523.98,211.46 522.5,215.5C 518.652,218.171 514.485,220.171 510,221.5C 511.374,216.057 513.374,210.724 516,205.5C 518.335,203.6 520.502,201.6 522.5,199.5 Z M 585.5,220.5 C 582.04,217.684 580.54,214.017 581,209.5C 583.066,212.961 584.566,216.627 585.5,220.5 Z M 545.5,220.5 C 550.485,221.248 555.485,221.915 560.5,222.5C 560.271,227.977 559.271,233.311 557.5,238.5C 558.603,238.998 559.603,239.331 560.5,239.5C 559.473,241.024 557.973,241.691 556,241.5C 552.756,241.151 549.59,240.485 546.5,239.5C 545.288,237.153 544.621,234.653 544.5,232C 545.205,228.196 545.538,224.363 545.5,220.5 Z M 528.5,221.5 C 532.215,221.196 535.715,221.863 539,223.5C 539.667,228.833 539.667,234.167 539,239.5C 531.709,241.817 524.209,243.151 516.5,243.5C 516.603,236.688 518.437,230.354 522,224.5C 524.166,223.269 526.333,222.269 528.5,221.5 Z M 512.5,227.5 C 513.586,227.62 514.253,228.287 514.5,229.5C 513.706,234.715 512.206,239.715 510,244.5C 506.566,247.197 502.732,248.697 498.5,249C 500.609,243.349 503.109,237.849 506,232.5C 508.326,230.934 510.492,229.268 512.5,227.5 Z M 568.5,232.5 C 569.266,234.684 569.933,237.018 570.5,239.5C 570.167,240.5 569.5,241.167 568.5,241.5C 567.679,238.554 567.679,235.554 568.5,232.5 Z M 590.5,235.5 C 593.984,240.102 595.984,245.102 596.5,250.5C 595.205,249.902 593.872,249.402 592.5,249C 593.081,248.107 593.415,247.107 593.5,246C 592.591,242.444 591.591,238.944 590.5,235.5 Z M 533.5,247.5 C 540.508,247.334 547.508,247.5 554.5,248C 557.242,253.918 557.909,260.085 556.5,266.5C 553.897,267.562 551.23,267.728 548.5,267C 552.465,264.708 551.965,263.208 547,262.5C 545.189,263.078 543.355,263.578 541.5,264C 540.809,265.067 540.309,266.234 540,267.5C 538.933,265.717 537.433,265.217 535.5,266C 536.167,266.667 536.833,267.333 537.5,268C 534.833,268.667 532.167,268.667 529.5,268C 528.106,267.044 527.439,265.711 527.5,264C 527.712,257.762 529.712,252.262 533.5,247.5 Z M 520.5,249.5 C 522.167,249.5 523.833,249.5 525.5,249.5C 525.304,256.55 523.637,263.216 520.5,269.5C 515,271.748 509.333,272.915 503.5,273C 504.348,265.783 506.515,258.95 510,252.5C 513.61,251.552 517.11,250.552 520.5,249.5 Z M 562.5,249.5 C 563.693,249.97 564.36,250.97 564.5,252.5C 565.776,256.762 566.776,261.095 567.5,265.5C 566.282,265.109 565.448,265.776 565,267.5C 563.049,261.659 562.216,255.659 562.5,249.5 Z M 501.5,255.5 C 502.124,255.917 502.457,256.584 502.5,257.5C 501.167,263.332 499.334,268.999 497,274.5C 493.548,277.097 489.714,278.263 485.5,278C 488.77,268.934 494.103,261.434 501.5,255.5 Z M 603.5,266.5 C 606.202,270.734 608.535,275.234 610.5,280C 608.212,280.418 606.212,279.751 604.5,278C 605.059,277.275 605.392,276.442 605.5,275.5C 604.672,272.521 604.005,269.521 603.5,266.5 Z M 526.5,275.5 C 531.43,275.197 536.263,275.531 541,276.5C 541.667,282.5 541.667,288.5 541,294.5C 539.174,296.074 537.007,296.907 534.5,297C 527.859,298.119 521.192,298.453 514.5,298C 513.439,291.361 514.273,284.861 517,278.5C 520.245,277.428 523.411,276.428 526.5,275.5 Z M 547.5,275.5 C 555.553,275.225 563.553,275.725 571.5,277C 572.416,277.374 573.25,277.874 574,278.5C 575.318,281.43 575.985,284.43 576,287.5C 575.667,287.167 575.333,286.833 575,286.5C 573.325,287.595 572.158,289.095 571.5,291C 568.415,291.622 565.915,293.122 564,295.5C 559.48,291.121 558.646,291.621 561.5,297C 557.117,296.992 552.784,296.326 548.5,295C 547.874,294.25 547.374,293.416 547,292.5C 546.215,286.751 546.382,281.084 547.5,275.5 Z M 507.5,278.5 C 509.103,278.312 510.437,278.812 511.5,280C 509.905,286.545 508.071,293.045 506,299.5C 500.679,301.706 495.179,303.373 489.5,304.5C 489.167,303.833 488.833,303.167 488.5,302.5C 490.03,296.41 491.863,290.41 494,284.5C 498.752,282.87 503.252,280.87 507.5,278.5 Z M 581.5,279.5 C 583.441,281.011 583.941,283.011 583,285.5C 582.187,283.564 581.687,281.564 581.5,279.5 Z M 486.5,288.5 C 485.644,292.57 484.477,296.57 483,300.5C 482.333,301.833 481.667,301.833 481,300.5C 480.178,302.788 479.511,305.122 479,307.5C 474.536,310.371 473.536,309.371 476,304.5C 478.333,299.833 480.667,295.167 483,290.5C 484.113,289.695 485.279,289.028 486.5,288.5 Z M 608.5,288.5 C 615.586,294.676 620.086,302.342 622,311.5C 619.165,310.084 616.498,308.417 614,306.5C 611.855,300.585 610.022,294.585 608.5,288.5 Z M 604.5,297.5 C 606.105,299.308 606.439,301.308 605.5,303.5C 604.534,301.604 604.201,299.604 604.5,297.5 Z M 534.5,303.5 C 542.667,303.076 550.667,303.91 558.5,306C 561.49,310.233 561.823,314.566 559.5,319C 560.452,320.3 560.452,321.467 559.5,322.5C 557.069,320.81 554.735,320.643 552.5,322C 544.867,322.11 537.367,322.943 530,324.5C 528.09,318.089 528.424,311.756 531,305.5C 532.302,304.915 533.469,304.249 534.5,303.5 Z M 518.5,304.5 C 520.5,304.5 522.5,304.5 524.5,304.5C 524.7,310.804 524.034,316.97 522.5,323C 513.4,324.405 504.4,326.238 495.5,328.5C 494.482,321.54 496.149,315.206 500.5,309.5C 506.422,307.32 512.422,305.654 518.5,304.5 Z M 583.5,324.5 C 578.461,323.574 573.461,323.574 568.5,324.5C 566.342,317.961 566.008,311.294 567.5,304.5C 570.412,305.204 572.912,306.537 575,308.5C 580.974,306.609 584.64,308.609 586,314.5C 589.651,317.018 589.984,319.684 587,322.5C 584.649,319.957 583.483,320.623 583.5,324.5 Z M 467.5,327.5 C 468.526,324.628 470.192,322.128 472.5,320C 478.532,315.484 485.198,312.317 492.5,310.5C 491.107,316.514 489.607,322.514 488,328.5C 487,329.833 486,329.833 485,328.5C 482.828,329.509 481.662,331.176 481.5,333.5C 477.13,334.098 473.63,336.098 471,339.5C 468.934,335.777 468.434,331.943 469.5,328C 468.906,327.536 468.239,327.369 467.5,327.5 Z M 567.5,325.5 C 570.719,326.638 574.053,327.471 577.5,328C 574.833,328.667 572.167,328.667 569.5,328C 568.244,327.583 567.577,326.75 567.5,325.5 Z M 627.5,326.5 C 630.225,330.268 632.725,334.268 635,338.5C 636.411,340.65 637.245,342.984 637.5,345.5C 631.57,345.524 626.237,343.858 621.5,340.5C 624.187,340.664 626.854,340.497 629.5,340C 630.516,339.481 631.182,338.647 631.5,337.5C 629.871,333.915 628.538,330.248 627.5,326.5 Z M 467.5,327.5 C 467.013,331.462 466.013,335.296 464.5,339C 464.439,340.711 465.106,342.044 466.5,343C 464.559,344.903 462.226,345.736 459.5,345.5C 461.118,338.94 463.784,332.94 467.5,327.5 Z M 608.5,334.5 C 606.663,334.361 606.33,333.694 607.5,332.5C 608.298,332.957 608.631,333.624 608.5,334.5 Z M 543.5,342.5 C 548.223,342.84 552.89,343.507 557.5,344.5C 557.667,353.084 557.667,361.751 557.5,370.5C 553.154,370.666 548.821,370.499 544.5,370C 542.688,366.078 542.021,361.911 542.5,357.5C 545.95,358.244 547.616,356.91 547.5,353.5C 545.61,353.297 544.11,353.963 543,355.5C 542.232,351.08 542.398,346.747 543.5,342.5 Z M 496.5,348.5 C 497.78,347.069 499.447,346.402 501.5,346.5C 501.343,347.873 501.51,349.207 502,350.5C 503.333,348.5 504.667,346.5 506,344.5C 506.047,358.524 505.38,372.524 504,386.5C 501.765,388.202 499.265,389.202 496.5,389.5C 496.666,381.16 496.5,372.827 496,364.5C 494.833,362.667 493.667,360.833 492.5,359C 493.025,358.308 493.692,357.808 494.5,357.5C 495.736,358.246 497.07,358.579 498.5,358.5C 498.649,357.448 498.483,356.448 498,355.5C 495.667,354.5 494,352.833 493,350.5C 491.452,356.681 488.286,357.847 483.5,354C 487.635,351.597 491.968,349.763 496.5,348.5 Z M 554.5,405.5 C 557.27,404.69 559.437,403.023 561,400.5C 563.62,393.194 562.787,386.361 558.5,380C 560.441,379.257 562.274,379.424 564,380.5C 564.999,369.521 565.666,358.521 566,347.5C 573.591,345.084 580.591,346.417 587,351.5C 588.464,365.805 588.797,380.138 588,394.5C 587.882,399.519 586.549,404.185 584,408.5C 583.805,417.215 583.305,425.881 582.5,434.5C 581.333,434.833 580.167,435.167 579,435.5C 568.674,434.773 558.34,434.106 548,433.5C 539.181,434.245 530.514,435.579 522,437.5C 521.085,436.672 520.419,435.672 520,434.5C 519.333,425.167 518.667,415.833 518,406.5C 517.671,402.96 515.838,401.794 512.5,403C 504.665,407.223 496.331,409.723 487.5,410.5C 487.216,407.223 487.549,404.057 488.5,401C 495.777,397.431 503.444,395.264 511.5,394.5C 511.333,380.829 511.5,367.163 512,353.5C 512.685,350.943 514.185,349.109 516.5,348C 521.004,347.002 525.504,346.169 530,345.5C 531.585,346.376 532.585,347.709 533,349.5C 533.108,359.226 533.775,368.893 535,378.5C 536.556,379.52 537.722,380.853 538.5,382.5C 534.952,392.193 536.452,400.86 543,408.5C 548.587,412.947 553.421,412.281 557.5,406.5C 556.675,405.614 555.675,405.281 554.5,405.5 Z M 604.5,351.5 C 603.078,351.291 601.745,350.791 600.5,350C 602.463,349.156 603.796,349.656 604.5,351.5 Z M 456.5,357.5 C 457.825,361.445 458.492,365.778 458.5,370.5C 458.333,374.833 458.167,379.167 458,383.5C 451.945,388.611 445.112,392.278 437.5,394.5C 437.062,386.057 437.562,377.723 439,369.5C 444.465,364.86 450.299,360.86 456.5,357.5 Z M 463.5,357.5 C 470.718,360.358 477.885,363.358 485,366.5C 486.053,374.802 486.553,383.135 486.5,391.5C 478.396,390.521 470.896,387.854 464,383.5C 463.65,378.816 463.15,374.149 462.5,369.5C 463.274,365.535 463.607,361.535 463.5,357.5 Z M 632.5,357.5 C 634.467,357.261 636.301,357.594 638,358.5C 638.91,367.244 638.576,375.911 637,384.5C 632.047,387.044 626.88,389.211 621.5,391C 618.234,393.474 615.734,392.974 614,389.5C 613.11,382.086 613.443,374.753 615,367.5C 620.521,363.493 626.354,360.16 632.5,357.5 Z M 660.5,379.5 C 661.222,379.918 661.722,380.584 662,381.5C 662.333,381.167 662.667,380.833 663,380.5C 663.667,385.167 663.667,389.833 663,394.5C 656.495,391.886 650.162,388.886 644,385.5C 642.363,376.836 642.53,368.169 644.5,359.5C 650.922,363.126 657.089,367.126 663,371.5C 663.671,374.748 663.171,375.081 661.5,372.5C 659.989,374.816 659.656,377.149 660.5,379.5 Z M 595.5,375.5 C 597.426,376.242 599.259,377.242 601,378.5C 601.824,381.882 601.657,385.216 600.5,388.5C 598.667,387.948 597,387.115 595.5,386C 596.357,385.311 597.023,384.478 597.5,383.5C 595.771,381.149 595.104,378.482 595.5,375.5 Z M 417.5,380.5 C 418.989,382.116 419.989,384.116 420.5,386.5C 424.746,387.911 427.413,390.745 428.5,395C 428.167,396.167 427.833,397.333 427.5,398.5C 424.003,401.083 420.336,403.416 416.5,405.5C 415.716,402.289 416.383,399.289 418.5,396.5C 416.196,391.349 415.863,386.015 417.5,380.5 Z M 679.5,380.5 C 680.21,382.893 680.877,385.393 681.5,388C 680.691,393.417 680.191,398.917 680,404.5C 677.104,402.467 673.937,401.134 670.5,400.5C 670.334,395.156 670.501,389.823 671,384.5C 673.876,383.052 676.709,381.719 679.5,380.5 Z M 409.5,381.5 C 410.658,390.657 410.824,399.991 410,409.5C 406.992,413.003 403.492,416.003 399.5,418.5C 398.335,409.184 398.168,399.851 399,390.5C 402.292,387.127 405.792,384.127 409.5,381.5 Z M 689.5,384.5 C 691.027,384.427 692.027,385.094 692.5,386.5C 690.973,386.573 689.973,385.906 689.5,384.5 Z M 693.5,387.5 C 697.461,388.938 699.628,391.605 700,395.5C 697.999,392.669 695.833,390.003 693.5,387.5 Z M 693.5,413.5 C 692.5,413.5 691.5,413.5 690.5,413.5C 690.5,414.833 690.5,416.167 690.5,417.5C 688.83,417.249 687.33,416.582 686,415.5C 685.8,409.493 686.133,403.493 687,397.5C 688.871,398.668 690.371,398.168 691.5,396C 690.15,394.282 688.983,392.448 688,390.5C 686.913,392.932 686.413,392.598 686.5,389.5C 687.978,389.238 689.311,389.571 690.5,390.5C 694.377,393.213 697.711,396.38 700.5,400C 701.745,407.164 701.745,414.331 700.5,421.5C 696.774,420.045 694.44,417.378 693.5,413.5 Z M 455.5,391.5 C 456.5,391.5 457.5,391.5 458.5,391.5C 458.83,398.2 458.497,404.866 457.5,411.5C 451.379,414.644 445.212,417.644 439,420.5C 437.96,416.299 436.793,412.132 435.5,408C 435.862,406.775 436.362,405.609 437,404.5C 442.971,399.775 449.137,395.442 455.5,391.5 Z M 463.5,391.5 C 469.667,393.834 475.5,396.834 481,400.5C 482.317,406.757 482.817,413.091 482.5,419.5C 476.192,418.432 470.359,416.099 465,412.5C 462.463,405.649 461.963,398.649 463.5,391.5 Z M 633.5,391.5 C 635.167,391.5 636.833,391.5 638.5,391.5C 638.666,398.508 638.5,405.508 638,412.5C 631.636,415.456 625.136,418.123 618.5,420.5C 618.109,413.079 618.609,405.746 620,398.5C 624.514,395.994 629.014,393.661 633.5,391.5 Z M 643.5,396.5 C 643.281,395.325 643.614,394.325 644.5,393.5C 647.329,394.747 649.995,396.247 652.5,398C 651.027,398.71 650.36,399.876 650.5,401.5C 651.5,401.5 652.5,401.5 653.5,401.5C 653.351,400.448 653.517,399.448 654,398.5C 657.508,400.587 660.842,402.92 664,405.5C 663.636,410.626 662.47,415.626 660.5,420.5C 655.08,417.373 649.58,414.373 644,411.5C 642.583,406.368 642.416,401.368 643.5,396.5 Z M 592.5,396.5 C 599.243,396.269 605.577,397.769 611.5,401C 614.165,403.604 614.665,406.437 613,409.5C 606.056,407.554 599.223,405.221 592.5,402.5C 591.306,400.484 591.306,398.484 592.5,396.5 Z M 508.5,409.5 C 511.238,408.965 513.072,409.965 514,412.5C 514.667,420.5 514.667,428.5 514,436.5C 505.163,438.768 496.33,441.102 487.5,443.5C 487.059,434.724 487.559,426.058 489,417.5C 495.417,414.53 501.917,411.864 508.5,409.5 Z M 589.5,410.5 C 597.526,411.09 605.193,413.09 612.5,416.5C 613.833,425.167 613.833,433.833 612.5,442.5C 604.471,441.195 596.638,439.195 589,436.5C 587.179,427.763 587.346,419.096 589.5,410.5 Z M 411.5,414.5 C 412.16,423.1 413.327,431.766 415,440.5C 416.859,445.026 420.026,448.192 424.5,450C 416.587,454.901 408.421,459.401 400,463.5C 398.882,460.861 398.382,458.027 398.5,455C 398.833,452.5 399.167,450 399.5,447.5C 401.258,446.872 402.758,445.872 404,444.5C 405.772,451.149 407.272,451.149 408.5,444.5C 407.448,444.649 406.448,444.483 405.5,444C 407.017,442.315 408.684,440.815 410.5,439.5C 409.833,439.167 409.167,438.833 408.5,438.5C 405.279,439.907 401.945,440.907 398.5,441.5C 398.334,436.489 398.501,431.489 399,426.5C 402.486,421.695 406.653,417.695 411.5,414.5 Z M 680.5,416.5 C 684.781,425.47 684.448,434.47 679.5,443.5C 678.758,444.287 677.925,444.953 677,445.5C 678.998,436.023 680.165,426.356 680.5,416.5 Z M 418.5,417.5 C 419.815,426.045 421.815,434.545 424.5,443C 422.349,445.021 420.849,444.521 420,441.5C 416.244,433.631 415.744,425.631 418.5,417.5 Z M 453.5,418.5 C 455.017,418.511 456.184,419.177 457,420.5C 458.218,425.455 458.551,430.455 458,435.5C 448.245,438.97 438.745,442.803 429.5,447C 434.124,441.252 437.29,434.752 439,427.5C 443.646,424.099 448.479,421.099 453.5,418.5 Z M 649.5,422.5 C 648.167,422.5 646.833,422.5 645.5,422.5C 645.379,425.541 646.879,427.208 650,427.5C 652.5,426.842 653,425.509 651.5,423.5C 654.596,424.547 657.596,425.88 660.5,427.5C 662.125,434.918 665.459,441.418 670.5,447C 661.377,444.509 652.544,441.009 644,436.5C 642.434,430.767 642.768,425.1 645,419.5C 646.652,420.399 648.152,421.399 649.5,422.5 Z M 463.5,420.5 C 469.651,422.493 475.485,425.159 481,428.5C 482.886,434.125 482.886,439.792 481,445.5C 475.092,443.38 469.425,440.713 464,437.5C 463.501,431.843 463.334,426.176 463.5,420.5 Z M 632.5,420.5 C 634.766,420.141 636.599,420.808 638,422.5C 638.903,428.281 638.57,433.947 637,439.5C 631.936,442.635 626.436,444.802 620.5,446C 619.333,446.5 618.5,447.333 618,448.5C 618.055,441.523 618.555,434.523 619.5,427.5C 623.767,424.869 628.101,422.536 632.5,420.5 Z M 687.5,422.5 C 690.752,423.459 693.752,424.959 696.5,427C 694.567,427.251 692.734,427.751 691,428.5C 688.999,433.123 689.166,437.623 691.5,442C 690.409,443.762 689.409,445.596 688.5,447.5C 687.033,446.305 685.533,446.305 684,447.5C 683.5,447.333 683,447.167 682.5,447C 684.604,444.958 685.771,442.458 686,439.5C 687.131,433.888 687.631,428.221 687.5,422.5 Z M 698.5,428.5 C 700.568,435.617 700.901,442.951 699.5,450.5C 698.503,443.197 698.169,435.863 698.5,428.5 Z M 498.5,446.5 C 503.129,444.229 507.962,442.229 513,440.5C 514.067,441.191 515.234,441.691 516.5,442C 510.798,444.707 504.798,446.207 498.5,446.5 Z M 600.5,446.5 C 595.239,445.77 590.239,444.27 585.5,442C 586,441.5 586.5,441 587,440.5C 591.626,442.422 596.126,444.422 600.5,446.5 Z M 453.5,442.5 C 456.234,441.016 457.734,442.016 458,445.5C 458.851,451.253 458.517,456.92 457,462.5C 446.859,468.488 436.359,473.821 425.5,478.5C 424.336,471.524 424.169,464.524 425,457.5C 426.5,456 428,454.5 429.5,453C 436.052,449.713 442.719,447.046 449.5,445C 448.251,447.21 448.418,449.376 450,451.5C 453.447,453.353 455.28,452.353 455.5,448.5C 455.401,446.201 454.734,444.201 453.5,442.5 Z M 463.5,444.5 C 469.659,446.248 475.825,447.914 482,449.5C 483.131,451.725 483.964,454.058 484.5,456.5C 483.49,459.813 483.49,463.146 484.5,466.5C 485.5,466.5 486.5,466.5 487.5,466.5C 487.351,465.448 487.517,464.448 488,463.5C 489.096,465.889 489.929,468.389 490.5,471C 482.422,469.647 474.422,467.647 466.5,465C 465.667,464.167 464.833,463.333 464,462.5C 462.619,456.624 462.453,450.624 463.5,444.5 Z M 643.5,444.5 C 653.426,446.712 662.593,450.712 671,456.5C 671.667,463.5 671.667,470.5 671,477.5C 662,472.5 653,467.5 644,462.5C 643.373,460.414 643.873,460.081 645.5,461.5C 646.318,459.892 646.985,458.225 647.5,456.5C 645.653,455.17 644.153,455.503 643,457.5C 642.294,453.113 642.46,448.78 643.5,444.5 Z M 631.5,445.5 C 633.5,445.5 635.5,445.5 637.5,445.5C 637.81,451.758 637.476,457.924 636.5,464C 633.624,466.507 630.457,467.007 627,465.5C 622.25,467.972 617.25,469.639 612,470.5C 611.167,469 610,467.833 608.5,467C 610.609,465.859 612.442,464.359 614,462.5C 613.711,458.669 614.711,455.002 617,451.5C 617.414,451.957 617.914,452.291 618.5,452.5C 622.66,449.632 626.994,447.299 631.5,445.5 Z M 680.5,450.5 C 681.776,451.386 681.776,452.386 680.5,453.5C 679.438,452.575 679.438,451.575 680.5,450.5 Z M 519.5,452.5 C 531.469,451.733 537.302,457.399 537,469.5C 528.632,462.442 520.966,463.109 514,471.5C 513.333,467.833 513.333,464.167 514,460.5C 516.202,459.598 518.368,458.598 520.5,457.5C 517.688,455.744 517.355,454.077 519.5,452.5 Z M 571.5,452.5 C 574.839,452.89 578.173,453.39 581.5,454C 581.043,454.414 580.709,454.914 580.5,455.5C 586.136,458.594 587.969,463.26 586,469.5C 578.764,463.066 571.431,463.066 564,469.5C 563.26,462.32 565.76,456.653 571.5,452.5 Z M 699.5,453.5 C 700.162,455.304 700.495,457.304 700.5,459.5C 700.603,462.037 700.103,464.371 699,466.5C 698.466,462.141 698.632,457.808 699.5,453.5 Z M 417.5,459.5 C 418.117,459.611 418.617,459.944 419,460.5C 419.831,468.188 419.665,475.855 418.5,483.5C 412.416,487.293 406.249,490.959 400,494.5C 398.545,487.556 398.212,480.556 399,473.5C 400.122,471.376 401.622,469.543 403.5,468C 408.397,465.392 413.063,462.559 417.5,459.5 Z M 676.5,461.5 C 679.467,461.989 682.133,463.155 684.5,465C 681.974,464.368 679.474,464.535 677,465.5C 676.51,464.207 676.343,462.873 676.5,461.5 Z M 491.5,467.5 C 492.289,467.783 492.956,468.283 493.5,469C 492.184,469.528 491.517,469.028 491.5,467.5 Z M 692.5,469.5 C 695.68,470.018 698.013,471.684 699.5,474.5C 700.794,480.853 700.794,487.186 699.5,493.5C 698.998,494.521 698.332,494.688 697.5,494C 692.091,490.299 687.091,486.133 682.5,481.5C 683.537,479.319 684.87,479.319 686.5,481.5C 687.554,481.32 688.554,480.987 689.5,480.5C 690.673,483.279 692.507,483.946 695,482.5C 695.497,485.146 695.664,487.813 695.5,490.5C 696.5,490.5 697.5,490.5 698.5,490.5C 698.421,489.07 698.754,487.736 699.5,486.5C 696.957,482.403 694.791,478.07 693,473.5C 692.51,472.207 692.343,470.873 692.5,469.5 Z M 545.5,470.5 C 549.106,470.211 552.606,470.544 556,471.5C 556.913,479.554 558.08,487.554 559.5,495.5C 553.488,496.716 547.488,496.549 541.5,495C 543.144,490.755 544.478,486.421 545.5,482C 549.167,482.002 552.833,482.169 556.5,482.5C 556.614,478.053 555.114,477.053 552,479.5C 550.395,478.899 549.062,477.899 548,476.5C 547.581,477.672 546.915,478.672 546,479.5C 545.502,476.518 545.335,473.518 545.5,470.5 Z M 606.5,470.5 C 610.243,470.459 610.41,471.126 607,472.5C 606.536,471.906 606.369,471.239 606.5,470.5 Z M 436.5,480.5 C 442.383,476.557 448.716,473.723 455.5,472C 449.457,475.513 443.124,478.346 436.5,480.5 Z M 642.5,471.5 C 647.673,472.422 652.34,474.422 656.5,477.5C 651.544,476.018 646.877,474.018 642.5,471.5 Z M 523.5,472.5 C 527.192,471.971 530.358,472.971 533,475.5C 534.109,478.917 534.942,482.417 535.5,486C 533.532,487.658 531.532,489.325 529.5,491C 527.109,491.287 524.776,491.787 522.5,492.5C 517.945,488.097 516.445,482.764 518,476.5C 519.812,475.023 521.645,473.69 523.5,472.5 Z M 570.5,472.5 C 582.618,472.458 585.784,477.792 580,488.5C 576.188,494.003 571.855,494.67 567,490.5C 562.214,483.354 563.381,477.354 570.5,472.5 Z M 677.5,475.5 C 679.147,477.186 679.314,478.853 678,480.5C 677.506,478.866 677.34,477.199 677.5,475.5 Z M 625.5,478.5 C 626.239,478.369 626.906,478.536 627.5,479C 625.756,482.83 624.089,486.663 622.5,490.5C 620.257,491.474 617.924,491.808 615.5,491.5C 614.737,488.859 614.57,486.192 615,483.5C 618.457,481.526 621.957,479.86 625.5,478.5 Z M 462.5,480.5 C 467.701,482.098 472.701,484.265 477.5,487C 476.062,487.219 474.729,487.719 473.5,488.5C 475.674,489.893 477.507,489.56 479,487.5C 480.41,488.787 481.91,489.954 483.5,491C 476.625,493.265 469.792,495.765 463,498.5C 459.311,494.467 457.311,489.8 457,484.5C 458.812,483.023 460.645,481.69 462.5,480.5 Z M 504.5,480.5 C 505.962,481.458 507.295,482.624 508.5,484C 507.069,484.465 505.903,485.299 505,486.5C 504.505,484.527 504.338,482.527 504.5,480.5 Z M 509.5,485.5 C 516.965,495.792 514.299,500.792 501.5,500.5C 501.298,498.011 501.798,495.677 503,493.5C 505.758,491.249 507.925,488.582 509.5,485.5 Z M 447.5,488.5 C 451.867,490.545 454.867,493.878 456.5,498.5C 453.051,500.99 449.718,503.657 446.5,506.5C 439.531,499.995 439.865,493.995 447.5,488.5 Z M 589.5,489.5 C 591.833,489.5 594.167,489.5 596.5,489.5C 596.5,492.833 596.5,496.167 596.5,499.5C 593.215,499.264 590.215,498.264 587.5,496.5C 588.577,494.271 589.244,491.937 589.5,489.5 Z M 486.5,494.5 C 488.958,494.926 490.124,496.259 490,498.5C 487.929,497.897 486.762,496.564 486.5,494.5 Z M 412.5,495.5 C 410.583,498.308 407.916,499.475 404.5,499C 406.818,497.007 409.484,495.841 412.5,495.5 Z M 655.5,501.5 C 655.687,499.436 656.187,497.436 657,495.5C 657.738,497.881 657.238,499.881 655.5,501.5 Z M 652.5,499.5 C 652.34,501.199 652.506,502.866 653,504.5C 653.383,503.944 653.883,503.611 654.5,503.5C 653.796,505.344 652.463,505.844 650.5,505C 642.574,500.506 643.241,498.673 652.5,499.5 Z M 473.5,501.5 C 475.199,501.34 476.866,501.506 478.5,502C 475.205,504.231 471.705,506.064 468,507.5C 467.333,506.5 467.333,505.5 468,504.5C 469.876,503.391 471.709,502.391 473.5,501.5 Z M 550.5,501.5 C 563.427,501.033 576.094,502.533 588.5,506C 590.541,507.242 591.707,509.075 592,511.5C 592.793,517.885 592.626,524.218 591.5,530.5C 577.811,531.333 564.144,530.833 550.5,529C 547.468,524.881 546.135,520.214 546.5,515C 546.07,509.867 547.404,505.367 550.5,501.5 Z M 515.5,502.5 C 524.096,502.584 532.596,503.251 541,504.5C 542.439,512.129 542.439,519.795 541,527.5C 540.5,528 540,528.5 539.5,529C 527.838,530.632 516.172,532.132 504.5,533.5C 502.006,525.23 501.839,516.897 504,508.5C 507.543,505.813 511.377,503.813 515.5,502.5 Z M 435.5,512.5 C 432.345,516.006 428.511,518.673 424,520.5C 422.148,517.1 420.982,513.434 420.5,509.5C 420.833,507.833 421.833,506.833 423.5,506.5C 428.142,507.487 432.142,509.487 435.5,512.5 Z M 460.5,506.5 C 461.756,506.461 462.756,506.961 463.5,508C 460.726,510.471 457.56,512.305 454,513.5C 452.941,513.37 452.108,512.87 451.5,512C 454.564,510.141 457.564,508.308 460.5,506.5 Z M 486.5,507.5 C 488.346,507.222 489.68,507.889 490.5,509.5C 489.726,510.711 488.893,510.711 488,509.5C 487.729,512.598 488.562,515.432 490.5,518C 487.942,519.38 487.942,520.88 490.5,522.5C 489.96,523.748 489.293,524.915 488.5,526C 482.834,523.909 477.168,522.409 471.5,521.5C 471.642,518.383 472.976,515.883 475.5,514C 479.096,511.539 482.763,509.373 486.5,507.5 Z M 607.5,514.5 C 608.733,506.566 612.4,505.399 618.5,511C 614.467,510.586 610.801,511.753 607.5,514.5 Z M 679.5,508.5 C 680.097,508.735 680.43,509.235 680.5,510C 679.303,512.894 677.97,515.727 676.5,518.5C 675.277,519.614 673.944,519.781 672.5,519C 675.712,516.073 678.045,512.573 679.5,508.5 Z M 645.5,510.5 C 647.379,510.393 647.712,510.893 646.5,512C 644.833,512.667 643.167,512.667 641.5,512C 643.058,511.79 644.391,511.29 645.5,510.5 Z M 597.5,516.5 C 598.827,523.647 602.16,529.814 607.5,535C 603.912,535.139 600.746,533.972 598,531.5C 597.501,526.511 597.334,521.511 597.5,516.5 Z M 440.5,519.5 C 441.653,520.313 441.653,521.313 440.5,522.5C 437.405,524.091 434.738,526.257 432.5,529C 430.799,529.345 429.466,528.678 428.5,527C 432.396,524.225 436.396,521.725 440.5,519.5 Z M 663.5,521.5 C 667.573,522.239 669.906,524.573 670.5,528.5C 664.894,528.9 662.56,526.566 663.5,521.5 Z M 638.5,528.5 C 640.071,534.01 640.404,539.676 639.5,545.5C 638.675,546.386 637.675,546.719 636.5,546.5C 637.24,540.51 637.906,534.51 638.5,528.5 Z M 465.5,531.5 C 466.239,531.369 466.906,531.536 467.5,532C 469.5,534.333 471.5,536.667 473.5,539C 469.494,542.005 465.16,544.505 460.5,546.5C 459.348,543.894 459.182,541.227 460,538.5C 462.784,536.941 464.617,534.608 465.5,531.5 Z M 440.5,533.5 C 442.546,539.737 446.212,544.904 451.5,549C 451.333,549.5 451.167,550 451,550.5C 443.4,547.291 439.9,541.624 440.5,533.5 Z M 533.5,535.5 C 544.54,535.215 555.54,535.715 566.5,537C 568.773,541.699 569.773,546.699 569.5,552C 569.691,555.698 569.024,559.198 567.5,562.5C 552.5,563.833 537.5,563.833 522.5,562.5C 520.038,554.92 519.871,547.254 522,539.5C 522.903,538.299 524.069,537.465 525.5,537C 528.365,536.817 531.031,536.317 533.5,535.5 Z M 657.5,535.5 C 658.289,535.783 658.956,536.283 659.5,537C 657.987,541.181 655.654,544.848 652.5,548C 651.241,548.982 649.908,549.315 648.5,549C 653.338,545.673 656.338,541.173 657.5,535.5 Z M 577.5,536.5 C 586.145,537.229 594.479,539.229 602.5,542.5C 603.251,543.376 603.751,544.376 604,545.5C 604.667,552.5 604.667,559.5 604,566.5C 603.333,567.167 602.667,567.833 602,568.5C 593.924,566.737 585.757,565.237 577.5,564C 574.549,560.039 573.216,555.539 573.5,550.5C 573.209,545.242 574.542,540.575 577.5,536.5 Z M 507.5,537.5 C 510.049,537.387 512.382,538.054 514.5,539.5C 515.934,547.584 515.768,555.584 514,563.5C 512.829,564.893 511.329,565.727 509.5,566C 502.521,567.248 495.521,567.915 488.5,568C 485.809,559.848 485.975,551.681 489,543.5C 495.063,540.93 501.23,538.93 507.5,537.5 Z M 627.5,538.5 C 628.289,538.783 628.956,539.283 629.5,540C 628.184,540.528 627.517,540.028 627.5,538.5 Z M 612.5,543.5 C 615.228,545.33 618.228,546.83 621.5,548C 623.737,550.192 624.404,552.692 623.5,555.5C 623.977,556.478 624.643,557.311 625.5,558C 624.283,559.648 623.45,561.481 623,563.5C 621.556,561.845 619.722,561.178 617.5,561.5C 617.286,563.144 617.62,564.644 618.5,566C 621.456,568.293 624.79,569.627 628.5,570C 630.014,571.439 630.347,572.939 629.5,574.5C 623.143,572.238 616.977,569.571 611,566.5C 609.922,558.565 610.422,550.898 612.5,543.5 Z M 475.5,545.5 C 477.792,545.244 479.959,545.577 482,546.5C 483.775,554.18 483.275,561.68 480.5,569C 473.819,572.557 466.986,575.724 460,578.5C 458.953,575.961 458.453,573.295 458.5,570.5C 458.836,565.816 459.336,561.149 460,556.5C 460.785,554.714 461.951,553.214 463.5,552C 467.434,549.536 471.434,547.369 475.5,545.5 Z M 637.5,554.5 C 638.222,554.918 638.722,555.584 639,556.5C 639.667,564.167 639.667,571.833 639,579.5C 637.562,571.277 637.062,562.943 637.5,554.5 Z M 525.5,569.5 C 529.514,569.334 533.514,569.501 537.5,570C 539.049,571.214 540.215,572.714 541,574.5C 541.667,581.5 541.667,588.5 541,595.5C 540.535,596.931 539.701,598.097 538.5,599C 529.139,603.141 522.639,600.641 519,591.5C 515.833,588.333 512.667,585.167 509.5,582C 506.155,580.994 503.155,579.494 500.5,577.5C 501.032,575.259 502.365,573.759 504.5,573C 511.624,571.74 518.624,570.573 525.5,569.5 Z M 549.5,569.5 C 562.674,568.975 575.674,570.141 588.5,573C 589.899,574.062 590.899,575.395 591.5,577C 582.471,582.701 575.471,590.368 570.5,600C 563.111,600.801 555.777,600.467 548.5,599C 547.874,598.25 547.374,597.416 547,596.5C 546.168,588.147 546.335,579.813 547.5,571.5C 548.522,571.145 549.189,570.478 549.5,569.5 Z M 486.5,573.5 C 488.857,573.337 491.19,573.503 493.5,574C 494.406,575.699 494.739,577.533 494.5,579.5C 487.713,581.822 482.546,586.156 479,592.5C 477.097,597.977 474.43,602.977 471,607.5C 468.02,599.701 467.687,591.701 470,583.5C 471.167,581 473,579.167 475.5,578C 479.307,576.572 482.974,575.072 486.5,573.5 Z M 597.5,573.5 C 605.296,573.449 612.63,575.282 619.5,579C 620.893,580.171 621.727,581.671 622,583.5C 622.667,589.5 622.667,595.5 622,601.5C 618.144,589.142 609.978,581.475 597.5,578.5C 597.5,576.833 597.5,575.167 597.5,573.5 Z M 461.5,585.5 C 462.496,585.414 463.329,585.748 464,586.5C 464.667,593.833 464.667,601.167 464,608.5C 463.241,610.635 461.741,611.968 459.5,612.5C 458.336,605.524 458.169,598.524 459,591.5C 459.236,589.189 460.069,587.189 461.5,585.5 Z M 591.5,586.5 C 597.462,587.101 599.296,590.101 597,595.5C 594.629,598.206 591.963,600.539 589,602.5C 587.333,605.833 585.667,609.167 584,612.5C 580.643,611.83 577.477,610.663 574.5,609C 577.651,599.502 583.317,592.002 591.5,586.5 Z M 498.5,587.5 C 509.005,589.503 515.505,595.836 518,606.5C 518.667,608.833 518.667,611.167 518,613.5C 516.062,612.14 514.396,612.473 513,614.5C 512.25,613.874 511.416,613.374 510.5,613C 507.541,605.867 502.874,600.033 496.5,595.5C 494.971,592.282 495.638,589.615 498.5,587.5 Z M 636.5,587.5 C 637.315,588.429 638.148,589.429 639,590.5C 639.831,598.188 639.665,605.855 638.5,613.5C 634.756,611.879 631.256,609.879 628,607.5C 627.333,601.5 627.333,595.5 628,589.5C 628.605,591.481 629.605,591.815 631,590.5C 631.494,592.134 631.66,593.801 631.5,595.5C 627.939,594.898 627.605,596.065 630.5,599C 629.424,600.726 629.257,602.559 630,604.5C 631.333,605.833 632.667,607.167 634,608.5C 635.839,605.006 635.006,602.173 631.5,600C 632.808,599.176 634.308,598.676 636,598.5C 636.499,594.848 636.665,591.182 636.5,587.5 Z M 608.5,608.5 C 608.504,603.971 606.504,600.471 602.5,598C 603.288,594.924 603.788,591.758 604,588.5C 609.898,592.127 613.731,597.293 615.5,604C 613.508,605.998 611.174,607.498 608.5,608.5 Z M 489.5,589.5 C 491.599,591.83 491.766,594.497 490,597.5C 488.03,600.968 485.864,604.301 483.5,607.5C 480.911,606.278 480.077,604.278 481,601.5C 483.597,597.295 486.431,593.295 489.5,589.5 Z M 631.5,595.5 C 633.028,595.517 633.528,596.184 633,597.5C 632.283,596.956 631.783,596.289 631.5,595.5 Z M 536.5,605.5 C 545.504,606.206 554.504,607.039 563.5,608C 564.931,608.465 566.097,609.299 567,610.5C 566.862,622.821 566.695,635.154 566.5,647.5C 560.666,647.95 554.999,647.283 549.5,645.5C 548.722,642.461 547.388,639.794 545.5,637.5C 543.625,640.751 541.625,643.918 539.5,647C 536.029,648.036 532.529,648.869 529,649.5C 527.691,635.845 527.024,622.178 527,608.5C 530.188,607.233 533.355,606.233 536.5,605.5 Z M 608.5,608.5 C 606.563,609.931 604.73,611.598 603,613.5C 601.374,611.083 599.874,608.583 598.5,606C 601.839,606.484 605.173,607.317 608.5,608.5 Z M 477.5,611.5 C 481.471,614.156 485.471,616.823 489.5,619.5C 489.833,621.167 490.167,622.833 490.5,624.5C 490.679,627.131 490.013,629.465 488.5,631.5C 484.255,630.699 480.421,629.032 477,626.5C 476.612,621.489 476.778,616.489 477.5,611.5 Z M 615.5,612.5 C 616.79,613.058 617.623,614.058 618,615.5C 619.287,619.847 619.454,624.18 618.5,628.5C 614.444,630.629 610.111,631.962 605.5,632.5C 604.588,628.869 604.421,625.203 605,621.5C 608.292,618.127 611.792,615.127 615.5,612.5 Z M 469.5,614.5 C 470.831,624.318 471.331,634.318 471,644.5C 470.667,644.167 470.333,643.833 470,643.5C 466.103,645.466 462.437,647.8 459,650.5C 458.317,641.134 458.651,631.801 460,622.5C 462.775,619.22 465.942,616.554 469.5,614.5 Z M 574.5,617.5 C 577.272,617.22 579.772,617.887 582,619.5C 582.693,629.189 582.527,638.856 581.5,648.5C 578.315,648.98 575.481,648.314 573,646.5C 572.333,637.833 572.333,629.167 573,620.5C 573.513,619.473 574.013,618.473 574.5,617.5 Z M 513.5,619.5 C 520.245,619.942 522.912,623.609 521.5,630.5C 519.8,633.346 518.633,639.012 518,647.5C 514.541,643.617 513.207,644.284 514,649.5C 513.333,648.833 512.667,648.167 512,647.5C 511.333,638.833 511.333,630.167 512,621.5C 512.717,620.956 513.217,620.289 513.5,619.5 Z M 637.5,621.5 C 638.117,621.611 638.617,621.944 639,622.5C 640.156,632.481 640.489,642.481 640,652.5C 639.586,652.043 639.086,651.709 638.5,651.5C 636.48,641.54 636.147,631.54 637.5,621.5 Z M 476.5,635.5 C 480.798,635.909 484.798,637.242 488.5,639.5C 489.319,644.829 489.986,650.162 490.5,655.5C 485.893,656.554 481.227,657.221 476.5,657.5C 476.5,650.167 476.5,642.833 476.5,635.5 Z M 612.5,636.5 C 615.044,636.104 617.211,636.771 619,638.5C 619.5,644.825 619.666,651.158 619.5,657.5C 614.704,657.134 610.037,656.134 605.5,654.5C 604.088,649.37 604.421,644.37 606.5,639.5C 608.78,638.864 610.78,637.864 612.5,636.5 Z M 470.5,646.5 C 471.483,650.298 471.817,654.298 471.5,658.5C 470.5,658.5 469.5,658.5 468.5,658.5C 467.99,654.187 468.657,650.187 470.5,646.5 Z M 537.5,653.5 C 547.242,653.245 556.908,653.911 566.5,655.5C 566.389,664.111 567.055,672.611 568.5,681C 567.833,682 567.167,683 566.5,684C 552.222,685.597 537.889,685.93 523.5,685C 523.167,684.667 522.833,684.333 522.5,684C 524.041,682.421 525.208,680.587 526,678.5C 526.922,670.79 528.089,663.123 529.5,655.5C 532.311,654.92 534.977,654.254 537.5,653.5 Z M 511.5,655.5 C 520.303,656.064 523.469,660.731 521,669.5C 520.667,668.833 520.333,668.167 520,667.5C 518.285,670.007 517.451,672.507 517.5,675C 513.056,675.25 510.222,673.084 509,668.5C 507.966,663.737 508.799,659.403 511.5,655.5 Z M 581.5,674.5 C 580.193,673.847 578.86,673.18 577.5,672.5C 576.614,673.325 576.281,674.325 576.5,675.5C 574.876,675.64 573.71,674.973 573,673.5C 572.333,668.833 572.333,664.167 573,659.5C 573.374,658.584 573.874,657.75 574.5,657C 579.208,656.504 583.875,656.838 588.5,658C 596.889,659.681 605.222,661.514 613.5,663.5C 613.884,668.337 613.217,673.003 611.5,677.5C 601.13,679.098 591.13,678.098 581.5,674.5 Z M 459.5,657.5 C 462.001,657.511 462.168,658.178 460,659.5C 459.536,658.906 459.369,658.239 459.5,657.5 Z M 636.5,657.5 C 637.995,657.415 638.995,658.081 639.5,659.5C 637.604,660.639 636.604,659.973 636.5,657.5 Z M 501.5,658.5 C 503.067,659.681 503.901,661.347 504,663.5C 504.634,667.855 504.967,672.188 505,676.5C 499.116,679.276 492.949,680.776 486.5,681C 482.849,677.031 480.515,672.364 479.5,667C 479.905,666.055 480.572,665.388 481.5,665C 488.249,662.694 494.916,660.527 501.5,658.5 Z M 462.5,664.5 C 463.496,664.414 464.329,664.748 465,665.5C 466.265,673.469 466.598,681.469 466,689.5C 465.997,693.882 463.831,695.549 459.5,694.5C 458.557,686.519 458.39,678.519 459,670.5C 459.421,667.98 460.588,665.98 462.5,664.5 Z M 616.5,681.5 C 617.137,676.147 617.97,670.814 619,665.5C 620.534,670.545 620.201,675.545 618,680.5C 617.617,681.056 617.117,681.389 616.5,681.5 Z M 635.5,665.5 C 637.752,665.916 639.252,667.249 640,669.5C 640.96,679.593 640.46,689.593 638.5,699.5C 636.473,698.307 634.973,696.64 634,694.5C 633.38,684.758 633.88,675.092 635.5,665.5 Z M 475.5,666.5 C 476.5,666.5 477.5,666.5 478.5,666.5C 478.414,671.967 478.914,677.301 480,682.5C 475.383,678.032 473.883,672.698 475.5,666.5 Z M 469.5,667.5 C 470.208,673.45 471.374,679.45 473,685.5C 475.441,687.969 478.274,689.802 481.5,691C 478.15,693.208 474.65,693.708 471,692.5C 469.67,684.227 469.17,675.893 469.5,667.5 Z M 626.5,679.5 C 628.933,683.539 628.933,687.873 626.5,692.5C 626,692.833 625.5,693.167 625,693.5C 620.572,692.296 616.072,691.463 611.5,691C 619.52,691.001 624.52,687.167 626.5,679.5 Z M 509.5,685.5 C 511.527,685.338 513.527,685.505 515.5,686C 514.833,686.667 514.167,687.333 513.5,688C 505.941,690.047 498.274,690.713 490.5,690C 496.96,688.488 503.293,686.988 509.5,685.5 Z M 529.5,690.5 C 532.487,690.998 535.487,691.498 538.5,692C 539.126,692.75 539.626,693.584 540,694.5C 541.351,702.797 541.684,711.13 541,719.5C 540.64,721.421 539.806,723.088 538.5,724.5C 515.363,725.912 492.53,729.246 470,734.5C 467.625,731.521 466.459,728.021 466.5,724C 467.027,716.787 467.86,709.62 469,702.5C 471.942,699.878 475.442,698.378 479.5,698C 486.5,697.667 493.5,697.333 500.5,697C 510.165,694.237 519.832,692.07 529.5,690.5 Z M 550.5,725.5 C 548.089,725.863 546.589,724.863 546,722.5C 545.053,712.733 545.387,703.066 547,693.5C 548.863,691.051 551.363,690.051 554.5,690.5C 561.591,690.991 568.591,691.991 575.5,693.5C 576.192,694.025 576.692,694.692 577,695.5C 577.667,704.5 577.667,713.5 577,722.5C 573.326,725.673 568.993,727.007 564,726.5C 561.833,726.333 559.667,726.167 557.5,726C 555.421,724.36 553.088,723.194 550.5,722.5C 549.438,723.425 549.438,724.425 550.5,725.5 Z M 612.5,700.5 C 612.281,701.675 612.614,702.675 613.5,703.5C 617.628,706.309 621.794,708.975 626,711.5C 626.53,717.204 626.197,722.871 625,728.5C 624.535,729.931 623.701,731.097 622.5,732C 610.159,730.4 597.825,728.4 585.5,726C 584.584,725.626 583.75,725.126 583,724.5C 581.012,714.064 581.345,703.731 584,693.5C 590.428,694.822 596.928,695.989 603.5,697C 606.739,697.622 609.739,698.788 612.5,700.5 Z M 460.5,702.5 C 462.477,713.116 463.144,724.116 462.5,735.5C 461.167,735.5 459.833,735.5 458.5,735.5C 458.334,725.828 458.5,716.161 459,706.5C 459.41,705.099 459.91,703.766 460.5,702.5 Z M 635.5,704.5 C 637.117,705.038 638.784,705.371 640.5,705.5C 640.708,716.224 640.041,726.891 638.5,737.5C 634.637,736.103 631.97,733.603 630.5,730C 631.193,725.19 631.693,720.357 632,715.5C 632.853,717.125 633.853,717.458 635,716.5C 635.855,712.407 636.022,708.407 635.5,704.5 Z M 542.5,733.5 C 549.507,733.834 556.507,734.334 563.5,735C 568.93,736.099 571.93,739.432 572.5,745C 571.594,747.791 570.927,750.624 570.5,753.5C 554.485,754.334 538.485,754.834 522.5,755C 519.714,749.105 519.881,743.271 523,737.5C 524.491,735.996 526.324,735.163 528.5,735C 533.351,734.826 538.018,734.326 542.5,733.5 Z M 475.5,745.5 C 476.031,743.376 477.365,741.876 479.5,741C 490.951,737.311 502.618,735.811 514.5,736.5C 515.422,741.472 515.588,746.472 515,751.5C 514.751,752.624 514.251,753.624 513.5,754.5C 511.075,755.308 508.742,756.308 506.5,757.5C 508.046,758.684 509.713,759.684 511.5,760.5C 501.197,762.908 490.864,763.075 480.5,761C 480,760.5 479.5,760 479,759.5C 478.251,754.511 477.585,749.511 477,744.5C 476.617,745.056 476.117,745.389 475.5,745.5 Z M 577.5,735.5 C 587.328,735.937 596.995,737.437 606.5,740C 609.593,742.752 612.26,745.752 614.5,749C 613.413,752.212 611.413,754.545 608.5,756C 598.421,756.658 588.421,755.992 578.5,754C 577.584,753.626 576.75,753.126 576,752.5C 575.211,746.682 575.711,741.016 577.5,735.5 Z M 614.5,740.5 C 620.225,742.435 621.892,745.935 619.5,751C 619.844,752.365 620.511,753.532 621.5,754.5C 618.941,756.952 617.441,759.952 617,763.5C 615.913,755.848 615.08,748.181 614.5,740.5 Z M 463.5,744.5 C 465.5,744.5 467.5,744.5 469.5,744.5C 469.788,750.229 469.454,755.896 468.5,761.5C 462.377,764.119 456.043,766.285 449.5,768C 448.259,769.487 448.759,770.32 451,770.5C 456.667,769.167 462.333,767.833 468,766.5C 468.833,766.833 469.667,767.167 470.5,767.5C 467.371,769.022 464.037,769.855 460.5,770C 457.717,772.264 454.55,773.764 451,774.5C 448.667,773.5 447,771.833 446,769.5C 445.161,764.079 445.494,758.746 447,753.5C 452.199,749.833 457.699,746.833 463.5,744.5 Z M 634.5,769.5 C 639.528,770.512 644.528,771.345 649.5,772C 649.833,771.667 650.167,771.333 650.5,771C 648.619,769.898 646.952,768.565 645.5,767C 646.348,764.23 646.681,761.397 646.5,758.5C 647.824,759.85 648.824,759.683 649.5,758C 646.521,753.341 642.188,751.008 636.5,751C 635.601,749.764 634.434,748.93 633,748.5C 631.348,748.86 629.682,749.193 628,749.5C 626.731,748.095 626.231,746.429 626.5,744.5C 633.705,745.957 640.705,748.123 647.5,751C 650,752.167 651.833,754 653,756.5C 654.169,762.673 653.336,768.507 650.5,774C 644.822,773.606 639.489,772.106 634.5,769.5 Z M 475.5,745.5 C 475.666,750.511 475.499,755.511 475,760.5C 473.06,755.323 473.226,750.323 475.5,745.5 Z M 627.5,756.5 C 630.301,757.735 632.968,759.235 635.5,761C 637.211,762.133 637.711,763.633 637,765.5C 633.784,764.538 630.618,763.372 627.5,762C 626.464,760.224 626.464,758.391 627.5,756.5 Z M 576.5,760.5 C 582.498,759.197 588.498,759.697 594.5,762C 588.532,761.704 582.532,761.204 576.5,760.5 Z M 516.5,769.5 C 520.247,769.392 523.914,769.892 527.5,771C 522.833,776 518.167,781 513.5,786C 509.221,787.244 504.888,787.577 500.5,787C 497.971,784.358 496.971,781.192 497.5,777.5C 500.649,777.789 503.649,777.289 506.5,776C 504.285,774.956 501.952,774.29 499.5,774C 505.169,772.066 510.836,770.566 516.5,769.5 Z M 565.5,771.5 C 575.039,770.837 584.206,772.837 593,777.5C 593.333,777.167 593.667,776.833 594,776.5C 596.315,788.681 591.815,792.181 580.5,787C 575.996,781.33 570.996,776.163 565.5,771.5 Z M 541.5,771.5 C 542.833,771.5 544.167,771.5 545.5,771.5C 545.788,777.229 545.454,782.896 544.5,788.5C 540.414,790.96 536.247,793.293 532,795.5C 528.569,792.15 525.735,788.317 523.5,784C 529.128,779.191 535.128,775.024 541.5,771.5 Z M 549.5,772.5 C 556.072,773.536 561.572,776.536 566,781.5C 566.667,782.833 566.667,784.167 566,785.5C 564.374,787.917 562.874,790.417 561.5,793C 557.664,793.055 554.164,791.888 551,789.5C 550.096,783.865 549.596,778.198 549.5,772.5 Z M 485.5,773.5 C 487.5,773.5 489.5,773.5 491.5,773.5C 492.965,777.389 493.465,781.389 493,785.5C 491.992,787.259 490.492,788.426 488.5,789C 482.292,791.337 475.959,791.837 469.5,790.5C 468.607,787.916 468.274,785.249 468.5,782.5C 471.205,782.62 471.872,781.62 470.5,779.5C 475.59,777.476 480.59,775.476 485.5,773.5 Z M 600.5,775.5 C 602.679,776.059 604.846,776.726 607,777.5C 608.422,776.795 609.755,776.461 611,776.5C 615.983,780.905 621.816,782.905 628.5,782.5C 628.384,785.86 628.051,789.193 627.5,792.5C 618.892,793.125 610.558,791.958 602.5,789C 600.852,784.683 600.186,780.183 600.5,775.5 Z M 634.5,794.5 C 635.586,794.38 636.253,793.713 636.5,792.5C 634.739,789.004 634.239,785.337 635,781.5C 639.17,783.504 641.003,786.837 640.5,791.5C 640.46,793.429 640.127,795.262 639.5,797C 636.981,797.741 635.315,796.908 634.5,794.5 Z M 462.5,783.5 C 464.385,785.795 464.885,788.462 464,791.5C 462.736,793.607 460.903,794.607 458.5,794.5C 458.338,792.473 458.505,790.473 459,788.5C 459.71,787.027 460.876,786.36 462.5,786.5C 462.5,785.5 462.5,784.5 462.5,783.5 Z M 571.5,787.5 C 576.022,791.867 579.022,797.2 580.5,803.5C 579.08,807.217 576.413,809.55 572.5,810.5C 571.558,810.392 570.725,810.059 570,809.5C 567.944,806.056 566.444,802.389 565.5,798.5C 566.734,794.363 568.734,790.696 571.5,787.5 Z M 517.5,789.5 C 527.484,795.413 528.818,802.746 521.5,811.5C 517.664,809.157 514.331,806.324 511.5,803C 513.117,798.271 515.117,793.771 517.5,789.5 Z M 501.5,792.5 C 503.086,793.148 504.753,793.648 506.5,794C 507.081,794.893 507.415,795.893 507.5,797C 505.54,805.008 503.04,812.841 500,820.5C 493.444,822.389 486.778,823.722 480,824.5C 476.363,816.418 476.029,808.085 479,799.5C 480.319,797.513 482.152,796.346 484.5,796C 490.363,795.128 496.03,793.961 501.5,792.5 Z M 588.5,795.5 C 594.584,795.787 600.584,796.62 606.5,798C 610.089,799.674 611.755,802.507 611.5,806.5C 608.874,807.422 606.207,808.422 603.5,809.5C 600.408,813.078 601.075,814.911 605.5,815C 607.906,813.378 609.739,811.211 611,808.5C 611.268,813.288 610.602,817.955 609,822.5C 603.675,825.455 598.675,825.122 594,821.5C 591.577,813.643 589.077,805.81 586.5,798C 587.056,796.989 587.722,796.156 588.5,795.5 Z M 465.5,798.5 C 467.792,798.244 469.959,798.577 472,799.5C 472.667,806.833 472.667,814.167 472,821.5C 471.535,822.931 470.701,824.097 469.5,825C 466.564,826.045 463.564,826.879 460.5,827.5C 459.914,827.291 459.414,826.957 459,826.5C 458.333,818.5 458.333,810.5 459,802.5C 461.314,801.267 463.481,799.933 465.5,798.5 Z M 618.5,800.5 C 619.713,801.497 619.546,802.497 618,803.5C 617.53,802.423 617.697,801.423 618.5,800.5 Z M 634.5,803.5 C 636.903,803.393 638.736,804.393 640,806.5C 640.667,813.833 640.667,821.167 640,828.5C 639.107,829.081 638.107,829.415 637,829.5C 630.129,827.907 623.296,826.241 616.5,824.5C 616.492,821.455 616.159,818.455 615.5,815.5C 617.527,815.338 619.527,815.505 621.5,816C 625.143,817.775 628.81,819.608 632.5,821.5C 633.279,818.934 634.779,816.934 637,815.5C 637.497,812.854 637.664,810.187 637.5,807.5C 633.503,809.072 632.503,807.738 634.5,803.5 Z M 546.5,808.5 C 548.861,808.674 551.194,809.007 553.5,809.5C 554.798,832.506 554.798,855.506 553.5,878.5C 550.833,878.5 548.167,878.5 545.5,878.5C 545.265,855.152 545.599,831.819 546.5,808.5 Z M 513.5,835.5 C 512.448,835.351 511.448,835.517 510.5,836C 511.524,837.367 511.024,838.2 509,838.5C 507.347,838.18 506.347,837.18 506,835.5C 504.516,827.127 506.016,819.46 510.5,812.5C 513.947,813.639 516.781,815.639 519,818.5C 519.871,825.397 519.204,832.064 517,838.5C 515.855,837.364 514.688,836.364 513.5,835.5 Z M 580.5,812.5 C 582.959,814.052 584.459,816.385 585,819.5C 586.384,825.109 586.717,830.775 586,836.5C 582.281,837.648 578.448,838.314 574.5,838.5C 574.119,831.822 573.952,825.156 574,818.5C 575.494,815.686 577.66,813.686 580.5,812.5 Z M 539.5,813.5 C 541.132,834.978 541.798,856.645 541.5,878.5C 538.833,878.5 536.167,878.5 533.5,878.5C 532.892,861.39 533.559,844.39 535.5,827.5C 535.244,826.311 534.911,825.144 534.5,824C 536.044,820.413 537.711,816.913 539.5,813.5 Z M 559.5,815.5 C 562.298,817.734 564.131,820.734 565,824.5C 565.467,834.168 565.967,843.835 566.5,853.5C 566.7,860.738 564.534,867.071 560,872.5C 559.5,853.503 559.333,834.503 559.5,815.5 Z M 482.5,828.5 C 484.801,829.06 487.134,829.56 489.5,830C 490.191,831.067 490.691,832.234 491,833.5C 491.667,840.5 491.667,847.5 491,854.5C 490.097,855.701 488.931,856.535 487.5,857C 481.197,859.225 474.864,859.558 468.5,858C 466.038,850.595 465.872,843.095 468,835.5C 468.5,833.667 469.667,832.5 471.5,832C 475.333,830.966 478.999,829.8 482.5,828.5 Z M 497.5,828.5 C 498.825,832.276 499.491,836.443 499.5,841C 499.558,846.565 499.058,852.065 498,857.5C 497.085,856.672 496.419,855.672 496,854.5C 495.333,846.833 495.333,839.167 496,831.5C 496.513,830.473 497.013,829.473 497.5,828.5 Z M 594.5,830.5 C 596.582,830.624 598.082,831.624 599,833.5C 600.627,840.48 600.794,847.48 599.5,854.5C 599.167,856.167 598.167,857.167 596.5,857.5C 595.78,848.473 595.113,839.473 594.5,830.5 Z M 607.5,831.5 C 613.977,831.878 620.31,833.044 626.5,835C 625.903,836.062 625.57,837.228 625.5,838.5C 628.002,843.823 628.002,849.157 625.5,854.5C 619.993,856.45 614.326,856.95 608.5,856C 607.692,855.692 607.025,855.192 606.5,854.5C 605.37,847.55 605.203,840.55 606,833.5C 606.717,832.956 607.217,832.289 607.5,831.5 Z M 461.5,833.5 C 462.117,833.611 462.617,833.944 463,834.5C 463.522,842.526 463.189,850.526 462,858.5C 461.333,859.167 460.667,859.833 460,860.5C 458.485,853.233 458.152,845.899 459,838.5C 459.366,836.548 460.199,834.882 461.5,833.5 Z M 637.5,837.5 C 638.5,837.5 639.5,837.5 640.5,837.5C 640.5,845.167 640.5,852.833 640.5,860.5C 639.5,860.5 638.5,860.5 637.5,860.5C 637.5,852.833 637.5,845.167 637.5,837.5 Z M 526.5,841.5 C 527.317,843.969 527.817,846.635 528,849.5C 528.5,858.827 528.666,868.161 528.5,877.5C 527.5,877.5 526.5,877.5 525.5,877.5C 525.328,875.508 525.995,873.842 527.5,872.5C 527.192,871.692 526.692,871.025 526,870.5C 525.421,860.82 525.588,851.153 526.5,841.5 Z M 578.5,843.5 C 585.232,842.55 588.065,845.55 587,852.5C 587.702,861.203 587.368,869.87 586,878.5C 582.243,880.095 578.91,879.429 576,876.5C 575.554,873.657 575.054,870.824 574.5,868C 575.244,860.857 575.744,853.691 576,846.5C 576.698,845.309 577.531,844.309 578.5,843.5 Z M 507.5,844.5 C 509.861,844.674 512.194,845.007 514.5,845.5C 513.753,855.526 513.586,865.526 514,875.5C 510.72,871.237 508.22,871.571 506.5,876.5C 505.749,875.624 505.249,874.624 505,873.5C 504.333,865.833 504.333,858.167 505,850.5C 505.236,848.155 506.07,846.155 507.5,844.5 Z M 751.5,853.5 C 756.267,853.191 760.934,853.691 765.5,855C 766.599,858.417 768.266,861.917 770.5,865.5C 771.298,863.922 771.798,862.256 772,860.5C 775.676,866.196 778.176,872.363 779.5,879C 768.933,880.715 758.933,879.048 749.5,874C 745.152,873.427 740.819,872.76 736.5,872C 739.155,863.853 744.155,857.687 751.5,853.5 Z M 486.5,863.5 C 490.437,863.207 494.27,863.54 498,864.5C 498.829,869.137 499.329,873.804 499.5,878.5C 496.753,878.813 494.086,878.48 491.5,877.5C 489.527,874.36 487.36,871.36 485,868.5C 482.513,870.809 480.513,873.476 479,876.5C 477.966,869.877 480.466,865.543 486.5,863.5 Z M 466.5,864.5 C 468.764,865.219 471.097,865.552 473.5,865.5C 473.662,867.527 473.495,869.527 473,871.5C 471.677,868.941 469.843,868.275 467.5,869.5C 466.333,872.5 465.167,875.5 464,878.5C 461.391,875.617 459.558,872.283 458.5,868.5C 461.02,866.87 463.687,865.537 466.5,864.5 Z M 598.5,864.5 C 604.888,864.312 611.222,864.812 617.5,866C 618.964,867.864 619.964,870.031 620.5,872.5C 623.504,871.327 625.671,869.327 627,866.5C 631.297,875.611 628.464,879.444 618.5,878C 617.812,875.071 616.812,872.237 615.5,869.5C 613.768,871.283 612.268,873.283 611,875.5C 607.61,872.931 604.444,870.264 601.5,867.5C 600.558,867.608 599.725,867.941 599,868.5C 598.502,871.482 598.335,874.482 598.5,877.5C 597.5,877.5 596.5,877.5 595.5,877.5C 595.5,873.5 595.5,869.5 595.5,865.5C 596.791,865.737 597.791,865.404 598.5,864.5 Z M 635.5,866.5 C 637.977,866.051 639.977,866.717 641.5,868.5C 636.677,880.389 634.677,879.722 635.5,866.5 Z M 736.5,881.5 C 745.115,881.058 752.281,884.058 758,890.5C 761.346,897.922 760.346,898.255 755,891.5C 754.055,891.905 753.388,892.572 753,893.5C 751.768,890.77 750.935,890.937 750.5,894C 750.755,895.326 751.422,896.326 752.5,897C 750.681,900.967 748.347,904.633 745.5,908C 742.558,909.124 739.558,909.458 736.5,909C 735.563,906.293 734.23,903.793 732.5,901.5C 731.185,903.316 729.685,904.983 728,906.5C 724.448,899.751 721.448,900.084 719,907.5C 718.085,901.909 719.419,896.909 723,892.5C 726.819,887.833 731.319,884.166 736.5,881.5 Z M 286.5,893.5 C 289.137,895.154 288.803,895.654 285.5,895C 286.056,894.617 286.389,894.117 286.5,893.5 Z M 761.5,898.5 C 763.115,900.974 763.448,903.64 762.5,906.5C 761.311,907.429 759.978,907.762 758.5,907.5C 759.486,904.507 760.486,901.507 761.5,898.5 Z"/></g>
<g><path style="opacity:0.505" fill="#fdfffd" d="M 552.5,229.5 C 556.392,230.742 557.392,233.242 555.5,237C 553.888,237.72 552.388,237.554 551,236.5C 550.865,234.078 551.365,231.745 552.5,229.5 Z"/></g>
<g><path style="opacity:0.367" fill="#fdfffd" d="M 535.5,234.5 C 538.175,236.376 537.842,237.876 534.5,239C 531.947,239.851 529.614,239.518 527.5,238C 530.158,236.522 532.825,235.355 535.5,234.5 Z"/></g>
<g><path style="opacity:0.205" fill="#fdfffd" d="M 533.5,292.5 C 536.548,292.494 537.048,293.494 535,295.5C 533.961,294.756 533.461,293.756 533.5,292.5 Z"/></g>
<g><path style="opacity:0.167" fill="#fdfffd" d="M 520.5,295.5 C 521.601,294.402 522.934,294.235 524.5,295C 523.318,296.768 521.985,296.935 520.5,295.5 Z"/></g>
<g><path style="opacity:0.326" fill="#fdfffd" d="M 494.5,298.5 C 497.187,298.336 499.854,298.503 502.5,299C 499.428,301.06 496.762,300.893 494.5,298.5 Z"/></g>
<g><path style="opacity:0.399" fill="#fdfffd" d="M 547.5,345.5 C 549.346,345.222 550.68,345.889 551.5,347.5C 550.311,348.429 548.978,348.762 547.5,348.5C 547.5,347.5 547.5,346.5 547.5,345.5 Z"/></g>
<g><path style="opacity:0.106" fill="#fdfffd" d="M 554.5,345.5 C 557.569,345.963 558.069,347.296 556,349.5C 554.812,348.437 554.312,347.103 554.5,345.5 Z"/></g>
<g><path style="opacity:0.28" fill="#fdfffd" d="M 544.5,346.5 C 546.561,347.751 546.894,349.418 545.5,351.5C 543.296,350.218 542.962,348.551 544.5,346.5 Z"/></g>
<g><path style="opacity:0.268" fill="#fdfffd" d="M 496.5,348.5 C 497.5,348.5 498.5,348.5 499.5,348.5C 499.5,349.5 499.5,350.5 499.5,351.5C 498.5,351.5 497.5,351.5 496.5,351.5C 496.5,350.5 496.5,349.5 496.5,348.5 Z"/></g>
<g><path style="opacity:0.397" fill="#fdfffd" d="M 478.5,370.5 C 478.5,369.833 478.167,369.5 477.5,369.5C 477.5,368.5 477.5,367.5 477.5,366.5C 479.861,366.674 482.194,367.007 484.5,367.5C 484.179,373.591 482.179,374.591 478.5,370.5 Z"/></g>
<g><path style="opacity:0.434" fill="#fdfffd" d="M 477.5,369.5 C 478.167,369.5 478.5,369.833 478.5,370.5C 478.616,373.91 476.95,375.244 473.5,374.5C 473.5,372.833 473.5,371.167 473.5,369.5C 474.833,369.5 476.167,369.5 477.5,369.5 Z"/></g>
<g><path style="opacity:0.281" fill="#fdfffd" d="M 452.5,372.5 C 453.496,372.414 454.329,372.748 455,373.5C 455.798,375.259 455.631,376.926 454.5,378.5C 452.717,376.977 452.051,374.977 452.5,372.5 Z"/></g>
<g><path style="opacity:0.279" fill="#fdfffd" d="M 499.5,372.5 C 500.5,372.5 501.5,372.5 502.5,372.5C 502.5,373.5 502.5,374.5 502.5,375.5C 499.433,375.879 498.433,374.879 499.5,372.5 Z"/></g>
<g><path style="opacity:0.286" fill="#fdfffd" d="M 440.5,374.5 C 442.465,374.948 442.798,375.948 441.5,377.5C 440.614,376.675 440.281,375.675 440.5,374.5 Z"/></g>
<g><path style="opacity:0.328" fill="#fdfffd" d="M 570.5,377.5 C 571.5,377.5 572.5,377.5 573.5,377.5C 573.5,378.833 573.5,380.167 573.5,381.5C 572.167,381.5 570.833,381.5 569.5,381.5C 569.433,380.041 569.766,378.708 570.5,377.5 Z"/></g>
<g><path style="opacity:0.54" fill="#fdfffd" d="M 660.5,379.5 C 660.5,382.167 660.5,384.833 660.5,387.5C 659.325,387.719 658.325,387.386 657.5,386.5C 656.626,384.253 656.292,381.92 656.5,379.5C 657.833,379.5 659.167,379.5 660.5,379.5 Z"/></g>
<g><path style="opacity:0.203" fill="#fdfffd" d="M 672.5,385.5 C 675.957,385.667 676.29,386.667 673.5,388.5C 672.614,387.675 672.281,386.675 672.5,385.5 Z"/></g>
<g><path style="opacity:0.531" fill="#fdfffd" d="M 520.5,387.5 C 522.167,387.5 523.833,387.5 525.5,387.5C 525.662,389.527 525.495,391.527 525,393.5C 523.333,394.833 521.667,394.833 520,393.5C 519.51,391.455 519.677,389.455 520.5,387.5 Z"/></g>
<g><path style="opacity:0.312" fill="#fdfffd" d="M 420.5,395.5 C 424.029,396.609 424.362,398.442 421.5,401C 420.552,401.483 419.552,401.649 418.5,401.5C 418.604,399.297 419.27,397.297 420.5,395.5 Z"/></g>
<g><path style="opacity:0.335" fill="#fdfffd" d="M 643.5,396.5 C 648.822,397.126 649.489,399.126 645.5,402.5C 643.914,400.827 643.247,398.827 643.5,396.5 Z"/></g>
<g><path style="opacity:0.29" fill="#fdfffd" d="M 655.5,402.5 C 659.343,402.987 660.676,404.987 659.5,408.5C 658.614,407.675 658.281,406.675 658.5,405.5C 657.5,405.5 656.5,405.5 655.5,405.5C 655.5,404.5 655.5,403.5 655.5,402.5 Z"/></g>
<g><path style="opacity:0.586" fill="#fdfffd" d="M 693.5,413.5 C 693.218,409.704 693.218,406.037 693.5,402.5C 697.554,403.838 699.554,406.672 699.5,411C 698.616,414.535 696.616,415.368 693.5,413.5 Z"/></g>
<g><path style="opacity:0.42" fill="#fdfffd" d="M 649.5,422.5 C 649.842,423.338 650.508,423.672 651.5,423.5C 653,425.509 652.5,426.842 650,427.5C 646.879,427.208 645.379,425.541 645.5,422.5C 646.833,422.5 648.167,422.5 649.5,422.5 Z"/></g>
<g><path style="opacity:0.606" fill="#fdfffd" d="M 655.5,453.5 C 657.451,453.227 658.951,453.893 660,455.5C 660.758,457.769 660.591,459.936 659.5,462C 658.216,462.684 657.049,462.517 656,461.5C 655.598,460.128 655.098,458.795 654.5,457.5C 655.246,456.264 655.579,454.93 655.5,453.5 Z"/></g>
<g><path style="opacity:0.306" fill="#fdfffd" d="M 523.5,454.5 C 524.5,454.5 525.5,454.5 526.5,454.5C 526.5,455.5 526.5,456.5 526.5,457.5C 523.433,457.879 522.433,456.879 523.5,454.5 Z"/></g>
<g><path style="opacity:0.289" fill="#fdfffd" d="M 572.5,454.5 C 574.465,454.948 574.798,455.948 573.5,457.5C 572.614,456.675 572.281,455.675 572.5,454.5 Z"/></g>
<g><path style="opacity:0.408" fill="#fdfffd" d="M 407.5,471.5 C 408.568,470.566 409.901,470.232 411.5,470.5C 412.64,480.736 411.306,481.07 407.5,471.5 Z"/></g>
<g><path style="opacity:0.367" fill="#fdfffd" d="M 400.5,477.5 C 401.496,477.414 402.329,477.748 403,478.5C 403.662,480.813 404.162,483.146 404.5,485.5C 403.5,485.5 402.5,485.5 401.5,485.5C 400.908,482.873 400.575,480.206 400.5,477.5 Z"/></g>
<g><path style="opacity:0.136" fill="#fdfffd" d="M 460.5,491.5 C 461.675,491.281 462.675,491.614 463.5,492.5C 461.948,493.798 460.948,493.465 460.5,491.5 Z"/></g>
<g><path style="opacity:0.227" fill="#fdfffd" d="M 518.5,511.5 C 519.568,510.566 520.901,510.232 522.5,510.5C 522.5,511.5 522.5,512.5 522.5,513.5C 520.801,513.473 519.467,512.806 518.5,511.5 Z"/></g>
<g><path style="opacity:0.502" fill="#fdfffd" d="M 555.5,521.5 C 558.91,521.384 560.244,523.05 559.5,526.5C 558.167,526.5 556.833,526.5 555.5,526.5C 555.5,524.833 555.5,523.167 555.5,521.5 Z"/></g>
<g><path style="opacity:0.374" fill="#fdfffd" d="M 508.5,550.5 C 511.5,550.167 512.833,551.5 512.5,554.5C 511.167,554.5 509.833,554.5 508.5,554.5C 508.5,553.167 508.5,551.833 508.5,550.5 Z"/></g>
<g><path style="opacity:0.232" fill="#fdfffd" d="M 584.5,554.5 C 585.5,554.5 586.5,554.5 587.5,554.5C 586.903,558.475 584.57,559.975 580.5,559C 582.041,557.629 583.375,556.129 584.5,554.5 Z"/></g>
<g><path style="opacity:0.45" fill="#fdfffd" d="M 461.5,597.5 C 462.725,598.152 463.392,599.319 463.5,601C 463.167,602.167 462.833,603.333 462.5,604.5C 461.526,602.257 461.192,599.924 461.5,597.5 Z"/></g>
<g><path style="opacity:0.433" fill="#fdfffd" d="M 545.5,608.5 C 549.405,609.965 550.072,612.298 547.5,615.5C 546.914,615.291 546.414,614.957 546,614.5C 545.505,612.527 545.338,610.527 545.5,608.5 Z"/></g>
<g><path style="opacity:0.362" fill="#fdfffd" d="M 541.5,620.5 C 542.5,620.5 543.5,620.5 544.5,620.5C 543.5,627.167 542.5,627.167 541.5,620.5 Z"/></g>
<g><path style="opacity:0.293" fill="#fdfffd" d="M 482.5,641.5 C 485.278,641.022 487.278,642.022 488.5,644.5C 485.193,646.17 483.193,645.17 482.5,641.5 Z"/></g>
<g><path style="opacity:0.394" fill="#fdfffd" d="M 530.5,661.5 C 533.022,661.128 535.022,661.961 536.5,664C 533.006,666.467 531.006,665.634 530.5,661.5 Z"/></g>
<g><path style="opacity:0.265" fill="#fdfffd" d="M 584.5,672.5 C 586.325,665.97 587.658,665.97 588.5,672.5C 587.167,672.5 585.833,672.5 584.5,672.5 Z"/></g>
<g><path style="opacity:0.174" fill="#fdfffd" d="M 584.5,672.5 C 584.179,674.048 583.179,674.715 581.5,674.5C 581.504,670.75 582.504,670.083 584.5,672.5 Z"/></g>
<g><path style="opacity:0.348" fill="#fdfffd" d="M 635.5,681.5 C 637.378,682.874 638.378,684.874 638.5,687.5C 638,689.5 637.5,691.5 637,693.5C 635.734,689.605 635.234,685.605 635.5,681.5 Z"/></g>
<g><path style="opacity:0.275" fill="#fdfffd" d="M 558.5,699.5 C 560.912,699.694 561.912,701.027 561.5,703.5C 560.5,703.5 559.5,703.5 558.5,703.5C 558.5,702.167 558.5,700.833 558.5,699.5 Z"/></g>
<g><path style="opacity:0.523" fill="#fdfffd" d="M 592.5,702.5 C 594.911,702.137 596.411,703.137 597,705.5C 597.281,712.256 595.614,712.923 592,707.5C 591.36,705.735 591.527,704.068 592.5,702.5 Z"/></g>
<g><path style="opacity:0.219" fill="#fdfffd" d="M 498.5,709.5 C 499.117,709.611 499.617,709.944 500,710.5C 500.667,712.5 500.667,714.5 500,716.5C 498.648,714.406 498.148,712.073 498.5,709.5 Z"/></g>
<g><path style="opacity:0.446" fill="#fdfffd" d="M 617.5,709.5 C 619.682,710.3 621.349,711.8 622.5,714C 621.531,715.758 620.364,716.258 619,715.5C 618.814,717.9 618.314,720.234 617.5,722.5C 615.006,718.232 615.006,713.898 617.5,709.5 Z"/></g>
<g><path style="opacity:0.519" fill="#fdfffd" d="M 560.5,714.5 C 568.101,715.07 568.101,716.736 560.5,719.5C 559.566,717.905 559.566,716.239 560.5,714.5 Z"/></g>
<g><path style="opacity:0.395" fill="#fdfffd" d="M 602.5,717.5 C 603.649,717.791 604.316,718.624 604.5,720C 604.167,720.833 603.833,721.667 603.5,722.5C 602.548,720.955 602.215,719.288 602.5,717.5 Z"/></g>
<g><path style="opacity:0.281" fill="#fdfffd" d="M 483.5,776.5 C 485.833,776.5 488.167,776.5 490.5,776.5C 490.5,777.5 490.5,778.5 490.5,779.5C 488.167,779.5 485.833,779.5 483.5,779.5C 483.5,778.5 483.5,777.5 483.5,776.5 Z"/></g>
<g><path style="opacity:0.338" fill="#fdfffd" d="M 477.5,777.5 C 479.355,777.272 480.188,777.939 480,779.5C 477.192,780.86 476.359,780.193 477.5,777.5 Z"/></g>
<g><path style="opacity:0.408" fill="#fdfffd" d="M 498.5,800.5 C 501.405,801.935 502.072,804.102 500.5,807C 499.552,807.483 498.552,807.649 497.5,807.5C 497.298,805.05 497.631,802.717 498.5,800.5 Z"/></g>
<g><path style="opacity:0.34" fill="#fdfffd" d="M 513.5,835.5 C 515.711,819.726 516.711,819.726 516.5,835.5C 515.5,835.5 514.5,835.5 513.5,835.5 Z"/></g>
<g><path style="opacity:0.308" fill="#fdfffd" d="M 616.5,833.5 C 618.465,833.948 618.798,834.948 617.5,836.5C 616.614,835.675 616.281,834.675 616.5,833.5 Z"/></g>
<g><path style="opacity:0.334" fill="#fdfffd" d="M 759.5,871.5 C 760.978,871.238 762.311,871.571 763.5,872.5C 762.833,872.833 762.167,873.167 761.5,873.5C 760.287,873.253 759.62,872.586 759.5,871.5 Z"/></g>
<g><path style="opacity:0.388" fill="#fdfffd" d="M 394.5,893.5 C 397.5,893.167 398.833,894.5 398.5,897.5C 397.167,897.5 395.833,897.5 394.5,897.5C 394.5,896.167 394.5,894.833 394.5,893.5 Z"/></g>
<g><path style="opacity:0.425" fill="#fdfffd" d="M 548.5,893.5 C 551.697,894.112 553.031,896.112 552.5,899.5C 548.262,899.28 546.928,897.28 548.5,893.5 Z"/></g>
<g><path style="opacity:0.245" fill="#fdfffd" d="M 586.5,893.5 C 591.833,894.5 591.833,895.5 586.5,896.5C 586.5,895.5 586.5,894.5 586.5,893.5 Z"/></g>
<g><path style="opacity:0.443" fill="#fdfffd" d="M 456.5,894.5 C 458.167,894.5 459.833,894.5 461.5,894.5C 461.804,897.233 460.637,898.899 458,899.5C 455.21,898.576 454.71,896.909 456.5,894.5 Z"/></g>
<g><path style="opacity:0.472" fill="#fdfffd" d="M 463.5,894.5 C 467.676,893.831 469.009,895.331 467.5,899C 466.207,899.49 464.873,899.657 463.5,899.5C 463.5,897.833 463.5,896.167 463.5,894.5 Z"/></g>
<g><path style="opacity:0.502" fill="#fdfffd" d="M 510.5,894.5 C 514.009,894.808 515.676,896.808 515.5,900.5C 513.833,900.5 512.167,900.5 510.5,900.5C 510.5,898.5 510.5,896.5 510.5,894.5 Z"/></g>
<g><path style="opacity:0.255" fill="#fdfffd" d="M 506.5,895.5 C 509.701,896.839 510.035,898.506 507.5,900.5C 505.246,899.286 504.913,897.619 506.5,895.5 Z"/></g>
<g><path style="opacity:0.55" fill="#fdfffd" d="M 615.5,895.5 C 617.5,895.5 619.5,895.5 621.5,895.5C 621.859,899.987 620.026,901.654 616,900.5C 615.506,898.866 615.34,897.199 615.5,895.5 Z"/></g>
<g><path style="opacity:0.528" fill="#fdfffd" d="M 623.5,896.5 C 624.496,896.414 625.329,896.748 626,897.5C 626.808,899.579 626.641,901.579 625.5,903.5C 624.914,903.291 624.414,902.957 624,902.5C 623.505,900.527 623.338,898.527 623.5,896.5 Z"/></g>
<g><path style="opacity:0.562" fill="#fdfffd" d="M 785.5,897.5 C 790.675,896.507 792.509,898.507 791,903.5C 788.81,906.249 787.143,905.915 786,902.5C 785.506,900.866 785.34,899.199 785.5,897.5 Z"/></g>
<g><path style="opacity:0.566" fill="#fdfffd" d="M 342.5,898.5 C 346.976,897.494 349.142,899.16 349,903.5C 343.803,906.459 341.636,904.793 342.5,898.5 Z"/></g>
<g><path style="opacity:0.489" fill="#fdfffd" d="M 377.5,898.5 C 382.608,898.217 383.608,900.05 380.5,904C 376.83,903.836 375.83,902.003 377.5,898.5 Z"/></g>
<g><path style="opacity:0.525" fill="#fdfffd" d="M 434.5,898.5 C 440.158,897.679 441.825,899.846 439.5,905C 438.056,905.781 436.723,905.614 435.5,904.5C 434.652,902.591 434.318,900.591 434.5,898.5 Z"/></g>
<g><path style="opacity:0.636" fill="#fdfffd" d="M 321.5,899.5 C 323.5,899.5 325.5,899.5 327.5,899.5C 329.569,905.929 327.403,908.262 321,906.5C 320.297,904.071 320.463,901.738 321.5,899.5 Z"/></g>
<g><path style="opacity:0.573" fill="#fdfffd" d="M 800.5,900.5 C 802.527,900.338 804.527,900.505 806.5,901C 807.554,902.388 807.72,903.888 807,905.5C 801.1,908.001 798.933,906.334 800.5,900.5 Z"/></g>
<g><path style="opacity:0.602" fill="#fdfffd" d="M 547.5,901.5 C 551.187,902.403 554.854,902.736 558.5,902.5C 559.52,904.432 559.687,906.432 559,908.5C 556.088,910.005 553.755,909.338 552,906.5C 548.849,910.826 546.682,910.493 545.5,905.5C 545.803,903.886 546.47,902.552 547.5,901.5 Z"/></g>
<g><path style="opacity:0.595" fill="#fdfffd" d="M 332.5,904.5 C 337.984,904.481 339.65,906.981 337.5,912C 335.559,912.743 333.726,912.576 332,911.5C 331.666,909.153 331.833,906.819 332.5,904.5 Z"/></g>
<g><path style="opacity:0.718" fill="#fdfffd" d="M 659.5,906.5 C 661.722,906.178 663.556,906.845 665,908.5C 665.667,911.5 665.667,914.5 665,917.5C 663.33,919.698 661.33,920.032 659,918.5C 658.306,914.446 658.473,910.446 659.5,906.5 Z"/></g>
<g><path style="opacity:0.738" fill="#fdfffd" d="M 603.5,907.5 C 611.602,908.702 615.102,913.369 614,921.5C 613,922.5 612,923.5 611,924.5C 608.741,922.754 607.408,920.42 607,917.5C 605.991,919.025 605.491,920.692 605.5,922.5C 602.192,923.026 600.026,921.693 599,918.5C 598.51,919.793 598.343,921.127 598.5,922.5C 593.016,922.562 591.183,919.895 593,914.5C 594.849,911.323 597.682,909.823 601.5,910C 602.381,909.292 603.047,908.458 603.5,907.5 Z"/></g>
<g><path style="opacity:0.656" fill="#fdfffd" d="M 667.5,907.5 C 671.945,906.993 674.279,908.993 674.5,913.5C 674.122,917.85 671.789,919.517 667.5,918.5C 666.167,914.833 666.167,911.167 667.5,907.5 Z"/></g>
<g><path style="opacity:0.589" fill="#fdfffd" d="M 397.5,908.5 C 402.143,908.622 403.809,910.789 402.5,915C 396.013,916.158 394.347,913.991 397.5,908.5 Z"/></g>
<g><path style="opacity:0.192" fill="#fdfffd" d="M 697.5,909.5 C 699.344,910.204 699.844,911.537 699,913.5C 697.812,912.437 697.312,911.103 697.5,909.5 Z"/></g>
<g><path style="opacity:0.678" fill="#fdfffd" d="M 472.5,910.5 C 480.382,909.546 483.549,912.879 482,920.5C 480.644,921.38 479.144,921.714 477.5,921.5C 477.93,916.504 476.597,915.67 473.5,919C 472.207,919.49 470.873,919.657 469.5,919.5C 469.129,915.997 470.129,912.997 472.5,910.5 Z"/></g>
<g><path style="opacity:0.702" fill="#fdfffd" d="M 459.5,914.5 C 467.961,915.398 470.628,919.565 467.5,927C 464.167,927.667 460.833,927.667 457.5,927C 453.295,922.177 453.961,918.011 459.5,914.5 Z"/></g>
<g><path style="opacity:0.891" fill="#e8eae8" d="M 18.5,945.5 C 27.1731,945.334 35.8397,945.5 44.5,946C 51.9718,949.434 56.1385,955.268 57,963.5C 57.6667,993.5 57.6667,1023.5 57,1053.5C 56.2317,1061.22 52.3984,1066.72 45.5,1070C 36.5369,1071.16 27.5369,1071.66 18.5,1071.5C 18.5,1029.5 18.5,987.5 18.5,945.5 Z M 27.5,956.5 C 33.4337,955.889 39.1004,956.722 44.5,959C 45.4601,960.419 46.2935,961.919 47,963.5C 47.2503,978.512 47.7503,993.512 48.5,1008.5C 47.7524,1023.15 47.2524,1037.82 47,1052.5C 46.214,1055.58 44.3807,1057.75 41.5,1059C 36.882,1059.99 32.2153,1060.49 27.5,1060.5C 27.5,1025.83 27.5,991.167 27.5,956.5 Z"/></g>
<g><path style="opacity:0.866" fill="#e8eae8" d="M 212.5,945.5 C 215.5,945.5 218.5,945.5 221.5,945.5C 221.5,987.5 221.5,1029.5 221.5,1071.5C 218.5,1071.5 215.5,1071.5 212.5,1071.5C 212.5,1029.5 212.5,987.5 212.5,945.5 Z"/></g>
<g><path style="opacity:0.878" fill="#e8eae8" d="M 302.5,945.5 C 305.5,945.5 308.5,945.5 311.5,945.5C 311.5,987.5 311.5,1029.5 311.5,1071.5C 307.889,1071.96 304.556,1071.29 301.5,1069.5C 296.255,1070.99 290.921,1071.49 285.5,1071C 281.133,1068.44 278.633,1064.61 278,1059.5C 277.05,1040.11 277.384,1020.78 279,1001.5C 280.105,998.063 282.272,995.563 285.5,994C 291.072,992.649 296.738,992.149 302.5,992.5C 302.5,976.833 302.5,961.167 302.5,945.5 Z M 289.5,1003.5 C 293.833,1003.5 298.167,1003.5 302.5,1003.5C 302.5,1022.5 302.5,1041.5 302.5,1060.5C 298.854,1061.28 295.188,1061.45 291.5,1061C 289.333,1060.17 287.833,1058.67 287,1056.5C 286.333,1040.17 286.333,1023.83 287,1007.5C 287.662,1006.02 288.496,1004.68 289.5,1003.5 Z"/></g>
<g><path style="opacity:0.872" fill="#e8eae8" d="M 347.5,945.5 C 358.505,945.333 369.505,945.5 380.5,946C 383.102,946.935 384.602,948.768 385,951.5C 385.854,973.855 385.521,996.189 384,1018.5C 383.167,1019.33 382.333,1020.17 381.5,1021C 373.507,1021.5 365.507,1021.67 357.5,1021.5C 357.5,1038.17 357.5,1054.83 357.5,1071.5C 354.167,1071.5 350.833,1071.5 347.5,1071.5C 347.5,1029.5 347.5,987.5 347.5,945.5 Z M 357.5,956.5 C 363.833,956.5 370.167,956.5 376.5,956.5C 376.5,974.5 376.5,992.5 376.5,1010.5C 370.167,1010.5 363.833,1010.5 357.5,1010.5C 357.5,992.5 357.5,974.5 357.5,956.5 Z"/></g>
<g><path style="opacity:0.88" fill="#e8eae8" d="M 698.5,945.5 C 701.5,945.5 704.5,945.5 707.5,945.5C 707.5,987.5 707.5,1029.5 707.5,1071.5C 703.889,1071.96 700.556,1071.29 697.5,1069.5C 692.255,1070.99 686.921,1071.49 681.5,1071C 677.51,1069.01 675.01,1065.84 674,1061.5C 673.036,1041.1 673.369,1020.77 675,1000.5C 676.458,998.04 678.291,995.873 680.5,994C 686.423,992.696 692.423,992.196 698.5,992.5C 698.5,976.833 698.5,961.167 698.5,945.5 Z M 685.5,1003.5 C 689.833,1003.5 694.167,1003.5 698.5,1003.5C 698.5,1022.5 698.5,1041.5 698.5,1060.5C 694.524,1061.33 690.524,1061.5 686.5,1061C 684.667,1060.5 683.5,1059.33 683,1057.5C 682.333,1040.5 682.333,1023.5 683,1006.5C 684.045,1005.63 684.878,1004.63 685.5,1003.5 Z"/></g>
<g><path style="opacity:0.868" fill="#e8eae8" d="M 743.5,945.5 C 753.833,945.5 764.167,945.5 774.5,945.5C 774.5,949.167 774.5,952.833 774.5,956.5C 767.5,956.5 760.5,956.5 753.5,956.5C 753.5,971.5 753.5,986.5 753.5,1001.5C 759.833,1001.5 766.167,1001.5 772.5,1001.5C 772.5,1005.17 772.5,1008.83 772.5,1012.5C 766.167,1012.5 759.833,1012.5 753.5,1012.5C 753.5,1028.5 753.5,1044.5 753.5,1060.5C 760.5,1060.5 767.5,1060.5 774.5,1060.5C 774.5,1064.17 774.5,1067.83 774.5,1071.5C 764.167,1071.5 753.833,1071.5 743.5,1071.5C 743.5,1029.5 743.5,987.5 743.5,945.5 Z"/></g>
<g><path style="opacity:0.866" fill="#e8eae8" d="M 872.5,945.5 C 875.5,945.5 878.5,945.5 881.5,945.5C 881.5,987.5 881.5,1029.5 881.5,1071.5C 878.5,1071.5 875.5,1071.5 872.5,1071.5C 872.5,1029.5 872.5,987.5 872.5,945.5 Z"/></g>
<g><path style="opacity:0.863" fill="#e8eae8" d="M 190.5,962.5 C 193.5,962.5 196.5,962.5 199.5,962.5C 199.5,967.167 199.5,971.833 199.5,976.5C 196.5,976.5 193.5,976.5 190.5,976.5C 190.5,971.833 190.5,967.167 190.5,962.5 Z"/></g>
<g><path style="opacity:0.863" fill="#e8eae8" d="M 117.5,968.5 C 120.5,968.5 123.5,968.5 126.5,968.5C 126.5,976.5 126.5,984.5 126.5,992.5C 129.833,992.5 133.167,992.5 136.5,992.5C 136.5,996.167 136.5,999.833 136.5,1003.5C 133.167,1003.5 129.833,1003.5 126.5,1003.5C 126.5,1022.5 126.5,1041.5 126.5,1060.5C 129.833,1060.5 133.167,1060.5 136.5,1060.5C 136.5,1064.17 136.5,1067.83 136.5,1071.5C 131.101,1071.69 125.767,1071.19 120.5,1070C 119.299,1069.1 118.465,1067.93 118,1066.5C 117.5,1045.5 117.333,1024.5 117.5,1003.5C 115.167,1003.5 112.833,1003.5 110.5,1003.5C 110.5,999.833 110.5,996.167 110.5,992.5C 112.833,992.5 115.167,992.5 117.5,992.5C 117.5,984.5 117.5,976.5 117.5,968.5 Z"/></g>
<g><path style="opacity:0.886" fill="#e8eae8" d="M 986.5,968.5 C 989.5,968.5 992.5,968.5 995.5,968.5C 995.5,976.5 995.5,984.5 995.5,992.5C 998.833,992.5 1002.17,992.5 1005.5,992.5C 1005.5,996.167 1005.5,999.833 1005.5,1003.5C 1002.17,1003.5 998.833,1003.5 995.5,1003.5C 995.5,1022.5 995.5,1041.5 995.5,1060.5C 998.833,1060.5 1002.17,1060.5 1005.5,1060.5C 1005.5,1064.17 1005.5,1067.83 1005.5,1071.5C 1000.43,1071.66 995.434,1071.16 990.5,1070C 989.667,1069.17 988.833,1068.33 988,1067.5C 987.019,1046.18 986.519,1024.84 986.5,1003.5C 984.167,1003.5 981.833,1003.5 979.5,1003.5C 979.5,999.833 979.5,996.167 979.5,992.5C 981.833,992.5 984.167,992.5 986.5,992.5C 986.5,984.5 986.5,976.5 986.5,968.5 Z"/></g>
<g><path style="opacity:0.88" fill="#e8eae8" d="M 74.5,992.5 C 82.903,992.13 91.2363,992.63 99.5,994C 100.701,994.903 101.535,996.069 102,997.5C 102.667,1008.83 102.667,1020.17 102,1031.5C 101.308,1032.03 100.808,1032.69 100.5,1033.5C 93.1968,1034.5 85.8635,1034.83 78.5,1034.5C 78.5,1043.5 78.5,1052.5 78.5,1061.5C 83.8333,1061.5 89.1667,1061.5 94.5,1061.5C 94.5,1056.83 94.5,1052.17 94.5,1047.5C 97.1667,1047.5 99.8333,1047.5 102.5,1047.5C 102.666,1053.84 102.5,1060.18 102,1066.5C 101.535,1067.93 100.701,1069.1 99.5,1070C 94.1728,1070.57 88.8395,1071.07 83.5,1071.5C 79.1368,1071.74 75.1368,1070.74 71.5,1068.5C 70.8108,1066.56 70.3108,1064.56 70,1062.5C 69.3333,1041.83 69.3333,1021.17 70,1000.5C 70.2463,996.995 71.7463,994.329 74.5,992.5 Z M 78.5,1002.5 C 83.8333,1002.5 89.1667,1002.5 94.5,1002.5C 94.5,1010.17 94.5,1017.83 94.5,1025.5C 89.1667,1025.5 83.8333,1025.5 78.5,1025.5C 78.5,1017.83 78.5,1010.17 78.5,1002.5 Z"/></g>
<g><path style="opacity:0.876" fill="#e8eae8" d="M 149.5,992.5 C 157.903,992.13 166.236,992.63 174.5,994C 175.333,994.833 176.167,995.667 177,996.5C 177.997,1021.51 178.163,1046.51 177.5,1071.5C 174.212,1071.93 171.212,1071.26 168.5,1069.5C 161.933,1071.21 155.266,1071.71 148.5,1071C 146.741,1069.99 145.574,1068.49 145,1066.5C 144.058,1053.43 144.391,1040.43 146,1027.5C 148.166,1025.88 150.666,1025.05 153.5,1025C 158.823,1024.5 164.156,1024.33 169.5,1024.5C 169.5,1017.17 169.5,1009.83 169.5,1002.5C 164.167,1002.5 158.833,1002.5 153.5,1002.5C 153.5,1006.83 153.5,1011.17 153.5,1015.5C 150.833,1015.5 148.167,1015.5 145.5,1015.5C 145.334,1009.16 145.5,1002.82 146,996.5C 147.032,994.973 148.199,993.64 149.5,992.5 Z M 153.5,1033.5 C 158.833,1033.5 164.167,1033.5 169.5,1033.5C 169.5,1042.5 169.5,1051.5 169.5,1060.5C 164.155,1060.69 158.822,1061.02 153.5,1061.5C 153.5,1052.17 153.5,1042.83 153.5,1033.5 Z"/></g>
<g><path style="opacity:0.865" fill="#e8eae8" d="M 190.5,992.5 C 193.5,992.5 196.5,992.5 199.5,992.5C 199.5,1018.83 199.5,1045.17 199.5,1071.5C 196.5,1071.5 193.5,1071.5 190.5,1071.5C 190.5,1045.17 190.5,1018.83 190.5,992.5 Z"/></g>
<g><path style="opacity:0.915" fill="#e8eae8" d="M 237.5,992.5 C 245.903,992.13 254.236,992.63 262.5,994C 263.333,994.833 264.167,995.667 265,996.5C 265.667,1008.5 265.667,1020.5 265,1032.5C 264.5,1033 264,1033.5 263.5,1034C 256.174,1034.5 248.841,1034.67 241.5,1034.5C 241.5,1043.5 241.5,1052.5 241.5,1061.5C 246.833,1061.5 252.167,1061.5 257.5,1061.5C 257.5,1056.83 257.5,1052.17 257.5,1047.5C 260.167,1047.5 262.833,1047.5 265.5,1047.5C 265.666,1054.17 265.5,1060.84 265,1067.5C 264.167,1068.33 263.333,1069.17 262.5,1070C 253.814,1071.78 245.147,1071.78 236.5,1070C 236,1069.5 235.5,1069 235,1068.5C 233.354,1044.92 233.021,1021.25 234,997.5C 234.997,995.677 236.164,994.01 237.5,992.5 Z M 241.5,1002.5 C 246.833,1002.5 252.167,1002.5 257.5,1002.5C 257.5,1010.17 257.5,1017.83 257.5,1025.5C 252.167,1025.5 246.833,1025.5 241.5,1025.5C 241.5,1017.83 241.5,1010.17 241.5,1002.5 Z"/></g>
<g><path style="opacity:0.887" fill="#e8eae8" d="M 400.5,992.5 C 408.903,992.13 417.236,992.63 425.5,994C 426.333,994.833 427.167,995.667 428,996.5C 428.205,1015.18 428.705,1033.85 429.5,1052.5C 428.627,1058.8 428.294,1065.14 428.5,1071.5C 425.212,1071.93 422.212,1071.26 419.5,1069.5C 412.933,1071.21 406.266,1071.71 399.5,1071C 397.741,1069.99 396.574,1068.49 396,1066.5C 395.058,1053.43 395.391,1040.43 397,1027.5C 399.166,1025.88 401.666,1025.05 404.5,1025C 409.823,1024.5 415.156,1024.33 420.5,1024.5C 420.5,1017.17 420.5,1009.83 420.5,1002.5C 415.167,1002.5 409.833,1002.5 404.5,1002.5C 404.5,1006.83 404.5,1011.17 404.5,1015.5C 401.833,1015.5 399.167,1015.5 396.5,1015.5C 396.334,1009.16 396.5,1002.82 397,996.5C 398.032,994.973 399.199,993.64 400.5,992.5 Z M 404.5,1033.5 C 409.833,1033.5 415.167,1033.5 420.5,1033.5C 420.5,1042.5 420.5,1051.5 420.5,1060.5C 415.155,1060.69 409.822,1061.02 404.5,1061.5C 404.5,1052.17 404.5,1042.83 404.5,1033.5 Z"/></g>
<g><path style="opacity:0.883" fill="#e8eae8" d="M 445.5,992.5 C 453.903,992.13 462.236,992.63 470.5,994C 471.46,995.419 472.293,996.919 473,998.5C 473.5,1004.82 473.666,1011.16 473.5,1017.5C 470.5,1017.5 467.5,1017.5 464.5,1017.5C 464.5,1012.83 464.5,1008.17 464.5,1003.5C 459.5,1003.5 454.5,1003.5 449.5,1003.5C 449.334,1007.85 449.501,1012.18 450,1016.5C 458.782,1024.28 466.449,1032.94 473,1042.5C 473.667,1050.17 473.667,1057.83 473,1065.5C 472.199,1069.63 469.699,1071.47 465.5,1071C 458.472,1071.5 451.472,1071.16 444.5,1070C 443.667,1069.17 442.833,1068.33 442,1067.5C 441.5,1059.51 441.334,1051.51 441.5,1043.5C 444.167,1043.5 446.833,1043.5 449.5,1043.5C 449.5,1049.17 449.5,1054.83 449.5,1060.5C 454.5,1060.5 459.5,1060.5 464.5,1060.5C 464.666,1055.49 464.499,1050.49 464,1045.5C 457.698,1038.2 451.032,1031.2 444,1024.5C 443.333,1023.17 442.667,1021.83 442,1020.5C 441.333,1012.5 441.333,1004.5 442,996.5C 443.032,994.973 444.199,993.64 445.5,992.5 Z"/></g>
<g><path style="opacity:0.892" fill="#e8eae8" d="M 488.5,992.5 C 496.903,992.13 505.236,992.63 513.5,994C 514.893,995.171 515.727,996.671 516,998.5C 516.5,1004.82 516.666,1011.16 516.5,1017.5C 513.833,1017.5 511.167,1017.5 508.5,1017.5C 508.5,1012.83 508.5,1008.17 508.5,1003.5C 503.167,1003.5 497.833,1003.5 492.5,1003.5C 492.334,1007.85 492.501,1012.18 493,1016.5C 501.782,1024.28 509.449,1032.94 516,1042.5C 516.667,1050.17 516.667,1057.83 516,1065.5C 515.225,1069.6 512.725,1071.43 508.5,1071C 501.472,1071.5 494.472,1071.16 487.5,1070C 486.299,1069.1 485.465,1067.93 485,1066.5C 484.5,1058.84 484.334,1051.17 484.5,1043.5C 487.167,1043.5 489.833,1043.5 492.5,1043.5C 492.5,1049.17 492.5,1054.83 492.5,1060.5C 497.5,1060.5 502.5,1060.5 507.5,1060.5C 507.666,1055.49 507.499,1050.49 507,1045.5C 499.295,1037.46 491.961,1029.13 485,1020.5C 484.333,1012.83 484.333,1005.17 485,997.5C 485.997,995.677 487.164,994.01 488.5,992.5 Z"/></g>
<g><path style="opacity:0.867" fill="#e8eae8" d="M 524.5,992.5 C 527.167,992.5 529.833,992.5 532.5,992.5C 534.831,1010.32 537.664,1027.99 541,1045.5C 543.548,1027.83 546.048,1010.16 548.5,992.5C 551.167,992.5 553.833,992.5 556.5,992.5C 558.858,1009.84 561.358,1027.17 564,1044.5C 567.314,1027.64 569.981,1010.64 572,993.5C 574.064,992.409 576.231,992.242 578.5,993C 579.516,993.519 580.182,994.353 580.5,995.5C 576.39,1020.49 572.39,1045.49 568.5,1070.5C 565.873,1071.09 563.206,1071.42 560.5,1071.5C 558.269,1054.05 555.436,1036.71 552,1019.5C 549.667,1035.5 547.333,1051.5 545,1067.5C 544.682,1069.06 543.849,1070.23 542.5,1071C 540.512,1071.18 538.512,1071.01 536.5,1070.5C 532.067,1044.57 528.067,1018.57 524.5,992.5 Z"/></g>
<g><path style="opacity:0.9" fill="#e8eae8" d="M 592.5,992.5 C 601.235,992.124 609.902,992.624 618.5,994C 619.333,994.833 620.167,995.667 621,996.5C 621.667,1020.17 621.667,1043.83 621,1067.5C 620.167,1068.33 619.333,1069.17 618.5,1070C 609.478,1071.73 600.478,1071.73 591.5,1070C 590.299,1069.1 589.465,1067.93 589,1066.5C 588.333,1043.5 588.333,1020.5 589,997.5C 589.997,995.677 591.164,994.01 592.5,992.5 Z M 597.5,1003.5 C 602.833,1003.5 608.167,1003.5 613.5,1003.5C 613.5,1022.5 613.5,1041.5 613.5,1060.5C 608.167,1060.5 602.833,1060.5 597.5,1060.5C 597.5,1041.5 597.5,1022.5 597.5,1003.5 Z"/></g>
<g><path style="opacity:0.939" fill="#e8eae8" d="M 634.5,992.5 C 637.788,992.073 640.788,992.74 643.5,994.5C 649.772,992.535 656.105,992.202 662.5,993.5C 663.192,994.025 663.692,994.692 664,995.5C 665.022,1003.47 665.522,1011.47 665.5,1019.5C 662.5,1019.5 659.5,1019.5 656.5,1019.5C 656.5,1014.17 656.5,1008.83 656.5,1003.5C 651.833,1003.5 647.167,1003.5 642.5,1003.5C 642.5,1026.17 642.5,1048.83 642.5,1071.5C 639.833,1071.5 637.167,1071.5 634.5,1071.5C 634.5,1045.17 634.5,1018.83 634.5,992.5 Z"/></g>
<g><path style="opacity:0.866" fill="#e8eae8" d="M 782.5,992.5 C 785.545,992.508 788.545,992.841 791.5,993.5C 794.115,1011.19 796.948,1028.86 800,1046.5C 803.64,1029.5 806.807,1012.33 809.5,995C 812.5,991.667 815.5,991.667 818.5,995C 813.639,1020.14 808.972,1045.31 804.5,1070.5C 801.01,1072.39 798.177,1071.72 796,1068.5C 791.174,1043.21 786.674,1017.88 782.5,992.5 Z"/></g>
<g><path style="opacity:0.881" fill="#e8eae8" d="M 831.5,992.5 C 840.235,992.124 848.902,992.624 857.5,994C 858.126,994.75 858.626,995.584 859,996.5C 860.274,1021.48 860.774,1046.48 860.5,1071.5C 856.889,1071.96 853.556,1071.29 850.5,1069.5C 843.933,1071.21 837.266,1071.71 830.5,1071C 829.667,1070.17 828.833,1069.33 828,1068.5C 827.036,1054.41 827.369,1040.41 829,1026.5C 836.355,1024.78 843.855,1024.11 851.5,1024.5C 851.5,1017.17 851.5,1009.83 851.5,1002.5C 846.167,1002.5 840.833,1002.5 835.5,1002.5C 835.5,1006.83 835.5,1011.17 835.5,1015.5C 832.833,1015.5 830.167,1015.5 827.5,1015.5C 827.334,1009.82 827.501,1004.16 828,998.5C 828.564,996.113 829.73,994.113 831.5,992.5 Z M 835.5,1033.5 C 840.833,1033.5 846.167,1033.5 851.5,1033.5C 851.5,1042.5 851.5,1051.5 851.5,1060.5C 846.155,1060.69 840.822,1061.02 835.5,1061.5C 835.5,1052.17 835.5,1042.83 835.5,1033.5 Z"/></g>
<g><path style="opacity:0.903" fill="#e8eae8" d="M 894.5,992.5 C 897.167,992.5 899.833,992.5 902.5,992.5C 902.5,1015.17 902.5,1037.83 902.5,1060.5C 908.167,1060.5 913.833,1060.5 919.5,1060.5C 919.5,1037.83 919.5,1015.17 919.5,992.5C 922.5,992.5 925.5,992.5 928.5,992.5C 928.5,1018.83 928.5,1045.17 928.5,1071.5C 924.776,1071.89 921.276,1071.23 918,1069.5C 911.251,1071.19 904.418,1071.69 897.5,1071C 896.299,1070.1 895.465,1068.93 895,1067.5C 894.5,1042.5 894.333,1017.5 894.5,992.5 Z"/></g>
<g><path style="opacity:0.878" fill="#e8eae8" d="M 943.5,992.5 C 952.235,992.124 960.902,992.624 969.5,994C 970.126,994.75 970.626,995.584 971,996.5C 972.257,1021.48 972.757,1046.48 972.5,1071.5C 968.889,1071.96 965.556,1071.29 962.5,1069.5C 955.933,1071.21 949.266,1071.71 942.5,1071C 941.667,1070.17 940.833,1069.33 940,1068.5C 939.758,1061.8 939.258,1055.14 938.5,1048.5C 939.002,1041.09 939.835,1033.76 941,1026.5C 948.355,1024.78 955.855,1024.11 963.5,1024.5C 963.5,1017.17 963.5,1009.83 963.5,1002.5C 958.167,1002.5 952.833,1002.5 947.5,1002.5C 947.5,1006.83 947.5,1011.17 947.5,1015.5C 944.833,1015.5 942.167,1015.5 939.5,1015.5C 939.334,1009.49 939.501,1003.49 940,997.5C 940.997,995.677 942.164,994.01 943.5,992.5 Z M 947.5,1033.5 C 952.833,1033.5 958.167,1033.5 963.5,1033.5C 963.5,1042.5 963.5,1051.5 963.5,1060.5C 958.155,1060.69 952.822,1061.02 947.5,1061.5C 947.5,1052.17 947.5,1042.83 947.5,1033.5 Z"/></g>
<g><path style="opacity:0.901" fill="#e8eae8" d="M 1019.5,992.5 C 1028.24,992.124 1036.9,992.624 1045.5,994C 1046.33,994.833 1047.17,995.667 1048,996.5C 1048.67,1019.83 1048.67,1043.17 1048,1066.5C 1047.53,1067.93 1046.7,1069.1 1045.5,1070C 1036.48,1071.73 1027.48,1071.73 1018.5,1070C 1017.3,1069.1 1016.47,1067.93 1016,1066.5C 1015.33,1043.5 1015.33,1020.5 1016,997.5C 1017,995.677 1018.16,994.01 1019.5,992.5 Z M 1024.5,1003.5 C 1029.83,1003.5 1035.17,1003.5 1040.5,1003.5C 1040.5,1022.5 1040.5,1041.5 1040.5,1060.5C 1035.17,1060.5 1029.83,1060.5 1024.5,1060.5C 1024.5,1041.5 1024.5,1022.5 1024.5,1003.5 Z"/></g>
<g><path style="opacity:0.873" fill="#e8eae8" d="M 1060.5,992.5 C 1064.11,992.044 1067.44,992.711 1070.5,994.5C 1076.38,992.677 1082.38,992.177 1088.5,993C 1089.7,993.903 1090.53,995.069 1091,996.5C 1091.5,1004.16 1091.67,1011.83 1091.5,1019.5C 1088.5,1019.5 1085.5,1019.5 1082.5,1019.5C 1082.5,1014.17 1082.5,1008.83 1082.5,1003.5C 1078.17,1003.5 1073.83,1003.5 1069.5,1003.5C 1069.5,1026.17 1069.5,1048.83 1069.5,1071.5C 1066.5,1071.5 1063.5,1071.5 1060.5,1071.5C 1060.5,1045.17 1060.5,1018.83 1060.5,992.5 Z"/></g>
</svg>
